<?xml version="1.0" encoding="iso-8859-1"?>
<!-- Generator: Adobe Illustrator 19.0.0, SVG Export Plug-In . SVG Version: 6.00 Build 0)  -->
<svg version="1.1" id="Layer_1" xmlns="http://www.w3.org/2000/svg" xmlns:xlink="http://www.w3.org/1999/xlink" x="0px" y="0px"
	 viewBox="0 0 511.997 511.997" style="enable-background:new 0 0 511.997 511.997;" xml:space="preserve">
<path style="fill:#103B9B;" d="M473.12,371.858c0.176-0.611,0.338-1.229,0.479-1.851c0.047-0.201,0.089-0.401,0.131-0.603
	c0.113-0.541,0.213-1.085,0.3-1.634c0.037-0.236,0.076-0.473,0.11-0.711c0.076-0.545,0.131-1.094,0.18-1.643
	c0.021-0.225,0.047-0.447,0.063-0.674c0.052-0.767,0.084-1.537,0.083-2.314l0,0l0,0v-0.006l-0.006-40.908v-0.001l-0.005-26.206
	v-0.002l-0.001-4.214l-0.004-25.576l0,0l-0.008-48.827l-0.005-26.206l-0.006-40.988c-0.001-2.996-0.409-5.93-1.161-8.75
	c-0.405-1.517-0.915-2.997-1.521-4.435c-2.478-5.877-6.574-11.017-11.925-14.741c-0.784-0.545-1.584-1.071-2.421-1.554
	l-22.875-13.201l-21.415-12.359l-17.241-9.95l-65.931-38.05L304.22,31.61l-19.29-11.133l-11.954-6.898
	c-10.533-6.079-23.511-6.077-34.043,0.006l-11.873,6.857l-19.29,11.141l-25.719,14.855l0,0l-65.917,38.076L87.243,101.2
	l-21.409,12.366l-11.283,6.518c-0.813,0.469-1.59,0.979-2.353,1.507c-3.272,2.267-6.073,5.068-8.332,8.237
	c-1.517,2.128-2.781,4.423-3.775,6.842c-1.654,4.032-2.557,8.399-2.557,12.9l0.007,40.915l0.005,26.206l0.012,73.743l0.001,4.011
	v0.849v0.002v0.013l0,0v0.005l0,0l0.005,26.201l0,0v1.864l0.002,12.618l0.004,26.499v0.006l0,0c0.001,0.773,0.033,1.54,0.084,2.304
	c0.016,0.224,0.042,0.446,0.061,0.669c0.049,0.55,0.106,1.096,0.18,1.638c0.033,0.236,0.072,0.471,0.11,0.706
	c0.086,0.546,0.184,1.087,0.297,1.626c0.043,0.201,0.086,0.403,0.131,0.603c0.14,0.615,0.298,1.223,0.471,1.825
	c0.033,0.113,0.061,0.227,0.095,0.34c0.909,3.043,2.239,5.93,3.941,8.59c0,0,0,0.001,0,0.002l0.002,0.001
	c1.172,1.832,2.517,3.552,4.027,5.137c0.049,0.052,0.098,0.106,0.147,0.158c0.71,0.735,1.454,1.441,2.233,2.112
	c0.125,0.11,0.256,0.215,0.382,0.322c0.786,0.661,1.594,1.3,2.444,1.89c0.784,0.545,1.584,1.071,2.421,1.554l22.553,13.016
	l21.415,12.36l17.562,10.136l91.65,52.894l19.29,11.133l11.954,6.898c10.533,6.079,23.511,6.077,34.043-0.006l11.873-6.857
	l19.29-11.141l25.719-14.854l55.558-32.088l10.363-5.986l26.362-15.226l21.409-12.366l13.814-7.979
	c0.813-0.469,1.59-0.979,2.352-1.507c0.851-0.59,1.66-1.226,2.446-1.883c0.129-0.107,0.259-0.213,0.386-0.322
	c0.779-0.673,1.526-1.376,2.236-2.11c0.046-0.048,0.09-0.098,0.136-0.146c3.725-3.892,6.475-8.609,8.02-13.766
	C473.062,372.073,473.088,371.965,473.12,371.858z"/>
<path style="fill:#FFFFFF;" d="M473.271,140.745c-0.405-1.517-0.915-2.997-1.52-4.435c-2.479-5.877-6.575-11.017-11.926-14.741
	c-0.784-0.545-1.584-1.071-2.421-1.554l-22.875-13.201l-21.415-12.359l-0.224-0.128L255.998,198.922L99.126,94.337L87.244,101.2
	l-21.41,12.366l-11.283,6.518c-0.813,0.469-1.59,0.979-2.353,1.507c-3.273,2.267-6.073,5.068-8.332,8.237
	c-1.517,2.128-2.781,4.423-3.775,6.842c-1.654,4.032-2.557,8.399-2.557,12.9l0.004,17.29l133.279,88.853l-133.25,88.833
	l0.002,17.952v0.006l0,0c0.001,0.773,0.033,1.54,0.084,2.304c0.016,0.224,0.042,0.446,0.061,0.669
	c0.049,0.55,0.106,1.096,0.18,1.638c0.033,0.236,0.072,0.471,0.11,0.706c0.086,0.546,0.184,1.087,0.297,1.626
	c0.042,0.201,0.086,0.403,0.131,0.603c0.14,0.615,0.298,1.222,0.471,1.825c0.033,0.113,0.061,0.227,0.095,0.34
	c0.909,3.043,2.239,5.93,3.94,8.59c0.001,0,0.001,0.001,0.001,0.002l0.002,0.001c1.172,1.833,2.517,3.552,4.027,5.137
	c0.049,0.052,0.098,0.106,0.147,0.158c0.71,0.735,1.454,1.441,2.233,2.112c0.125,0.11,0.256,0.215,0.382,0.322
	c0.786,0.661,1.594,1.3,2.444,1.89c0.784,0.545,1.584,1.071,2.421,1.554l22.553,13.016l21.415,12.36l0.082,0.047L256,312.502
	l157.337,104.891l8.89-5.135l21.409-12.366l13.814-7.979c0.813-0.469,1.59-0.979,2.352-1.507c0.852-0.59,1.66-1.226,2.446-1.883
	c0.129-0.107,0.259-0.213,0.386-0.322c0.779-0.673,1.526-1.376,2.236-2.11c0.047-0.048,0.09-0.098,0.136-0.146
	c3.725-3.892,6.475-8.609,8.02-13.766c0.033-0.106,0.06-0.215,0.09-0.322c0.176-0.611,0.338-1.229,0.479-1.851
	c0.047-0.201,0.089-0.401,0.131-0.603c0.113-0.541,0.213-1.085,0.3-1.634c0.037-0.236,0.076-0.473,0.11-0.711
	c0.076-0.545,0.131-1.094,0.18-1.643c0.02-0.225,0.046-0.447,0.063-0.674c0.052-0.767,0.083-1.537,0.083-2.314l0,0v-0.006
	l-0.002-17.859l-133.28-88.852l133.25-88.833l-0.002-17.382C474.431,146.499,474.024,143.565,473.271,140.745z"/>
<path style="fill:#ED1F34;" d="M462.249,388.524c0.129-0.107,0.259-0.213,0.386-0.322c0.779-0.673,1.526-1.376,2.236-2.11
	c0.047-0.048,0.09-0.098,0.136-0.146c3.725-3.892,6.475-8.609,8.02-13.766c0.033-0.106,0.06-0.215,0.09-0.322
	c0.176-0.611,0.338-1.229,0.479-1.851c0.047-0.201,0.089-0.401,0.131-0.603c0.113-0.541,0.213-1.085,0.3-1.634
	c0.037-0.236,0.076-0.473,0.11-0.711c0.076-0.545,0.131-1.094,0.18-1.643c0.02-0.225,0.046-0.447,0.063-0.674
	c0.012-0.182,0.011-0.369,0.021-0.552L284.065,236.999l174.427-116.285c-0.364-0.231-0.714-0.481-1.089-0.699l-22.875-13.201
	l-6.416-3.704L227.618,236.79L53.534,120.734c-0.447,0.285-0.904,0.556-1.337,0.856c-3.273,2.267-6.073,5.068-8.332,8.237
	c-1.517,2.128-2.781,4.423-3.775,6.842c-1.467,3.577-2.34,7.417-2.52,11.381l189.733,126.793L53.068,390.999
	c0.504,0.333,1.001,0.676,1.529,0.981l22.553,13.016l6.278,3.623L284.396,274.64l174.511,116.341
	c0.295-0.195,0.606-0.374,0.896-0.575C460.655,389.818,461.463,389.182,462.249,388.524z"/>
<path d="M457.45,391.914l-6.923,3.999L284.395,285.159L91.882,413.499l-14.734-8.503l-2.179-1.256l204.57-136.38
	c2.939-1.959,6.768-1.959,9.709,0l176.555,117.705c-0.264,0.295-0.522,0.596-0.796,0.881c-0.046,0.048-0.089,0.099-0.136,0.146
	c-0.711,0.734-1.458,1.437-2.236,2.11c-0.127,0.108-0.257,0.215-0.386,0.322c-0.786,0.657-1.594,1.294-2.446,1.883
	C459.04,390.935,458.262,391.445,457.45,391.914z M236.055,274.847c0.001-2.924-1.458-5.654-3.889-7.279L39.338,138.705
	c-1.169,3.452-1.805,7.109-1.805,10.864l0.002,8.981l174.007,116.284L46.203,385.059c0.259,0.292,0.494,0.602,0.766,0.885
	c0.049,0.052,0.098,0.106,0.147,0.158c0.71,0.735,1.454,1.441,2.233,2.112c0.125,0.11,0.256,0.215,0.382,0.322
	c0.786,0.661,1.594,1.3,2.444,1.89c0.784,0.545,1.584,1.071,2.421,1.554l6.848,3.952l170.715-113.809
	C234.59,280.501,236.054,277.771,236.055,274.847z M227.618,245.54c1.691,0,3.385-0.489,4.853-1.47l204.097-136.079l-2.037-1.177
	l-14.871-8.583L227.618,226.273L61.935,115.818l-7.384,4.265c-0.813,0.469-1.59,0.979-2.353,1.507
	c-2.097,1.453-3.976,3.144-5.666,4.991L222.764,244.07C224.233,245.05,225.925,245.54,227.618,245.54z M275.317,236.995
	c-0.001,2.924,1.458,5.656,3.889,7.281l193.383,129.228c0.152-0.439,0.306-0.878,0.439-1.323c0.033-0.106,0.06-0.215,0.09-0.322
	c0.176-0.611,0.338-1.229,0.479-1.851c0.047-0.201,0.089-0.401,0.131-0.603c0.113-0.541,0.213-1.085,0.3-1.634
	c0.037-0.236,0.076-0.473,0.11-0.711c0.076-0.545,0.131-1.094,0.18-1.643c0.021-0.225,0.046-0.447,0.063-0.674
	c0.052-0.767,0.083-1.537,0.083-2.314l0,0v-0.006l-0.001-8.715l-174.636-116.7L465.5,126.56c-1.688-1.852-3.583-3.532-5.677-4.99
	c-0.784-0.545-1.584-1.071-2.421-1.554l-7.31-4.218L279.211,229.719C276.78,231.34,275.318,234.071,275.317,236.995z"/>
<path style="fill:#FFFFFF;" d="M474.455,295.305v-4.214l-0.005-25.576l-0.008-48.827l-0.001-8.229H303.252V31.05l-18.317-10.572
	l-11.954-6.898c-10.533-6.079-23.511-6.077-34.043,0.006l-11.873,6.857l-18.317,10.579v177.437H37.544l0.001,8.229l0.012,73.743
	l0.001,4.011v0.849v0.002v0.013l0,0v0.005l0,0l0.001,7.651h171.189v177.984l18.317,10.572l11.954,6.898
	c10.533,6.079,23.511,6.077,34.043-0.006l11.873-6.857l18.317-10.579V302.963h171.205l-0.001-7.656V295.305z"/>
<path style="fill:#ED1F34;" d="M474.445,230.335H281.377V18.425l-8.396-4.845c-10.533-6.079-23.511-6.077-34.043,0.006l-8.314,4.802
	v211.947H37.548l0.008,50.751h193.068v212.486l8.396,4.845c10.533,6.079,23.511,6.077,34.043-0.006l8.314-4.802V281.086h193.076
	l-0.002-15.57L474.445,230.335z"/>
<path d="M483.473,149.495c0-3.71-0.493-7.437-1.464-11.077c-0.503-1.887-1.15-3.777-1.928-5.622
	c-3.18-7.543-8.4-13.991-15.092-18.648c-1.096-0.763-2.099-1.406-3.066-1.964L277.501,5.749
	c-13.287-7.668-29.798-7.666-43.085,0.007L50.033,112.25c-0.945,0.545-1.892,1.15-2.986,1.906
	c-4.086,2.831-7.633,6.337-10.545,10.421c-1.911,2.681-3.518,5.593-4.777,8.659c-2.146,5.23-3.235,10.725-3.235,16.334
	l0.036,212.932c0,0.927,0.034,1.881,0.105,2.92c0.017,0.24,0.039,0.479,0.064,0.716l0.013,0.128c0.06,0.693,0.133,1.383,0.23,2.095
	c0.035,0.259,0.076,0.517,0.133,0.864c0.11,0.697,0.235,1.389,0.38,2.078c0.054,0.254,0.109,0.509,0.164,0.755
	c0.177,0.776,0.377,1.544,0.604,2.339c0.04,0.145,0.081,0.291,0.115,0.401c1.138,3.811,2.804,7.451,4.953,10.82
	c0.016,0.025,0.031,0.051,0.048,0.076c1.483,2.317,3.194,4.498,5.049,6.446c0.048,0.052,0.175,0.188,0.224,0.239
	c0.896,0.93,1.847,1.829,2.825,2.674l0.481,0.405c1.096,0.921,2.107,1.701,3.097,2.391c1.115,0.775,2.087,1.397,3.062,1.96
	l184.424,106.436c6.643,3.834,14.089,5.751,21.536,5.751c7.451,0,14.904-1.919,21.549-5.757l184.383-106.495
	c0.945-0.545,1.892-1.15,2.987-1.907c0.989-0.685,2.001-1.464,3.108-2.388l0.476-0.399c0.986-0.85,1.939-1.748,2.866-2.707
	l0.136-0.145c4.696-4.904,8.205-10.93,10.128-17.354c0.049-0.16,0.094-0.321,0.147-0.514c0.219-0.762,0.421-1.531,0.597-2.306
	c0.058-0.252,0.112-0.505,0.169-0.774c0.142-0.684,0.269-1.371,0.397-2.179c0.041-0.258,0.082-0.516,0.122-0.796
	c0.093-0.687,0.168-1.379,0.227-2.062l0.014-0.145c0.024-0.239,0.047-0.477,0.064-0.721c0.071-1.057,0.105-2.018,0.104-2.93
	L483.473,149.495z M454.661,128.991c3.881,2.701,6.909,6.446,8.756,10.825c0.452,1.074,0.828,2.169,1.119,3.259
	c0.567,2.124,0.854,4.284,0.854,6.42l0.012,71.238H291.264V34.572l161.619,93.274C453.41,128.15,453.975,128.514,454.661,128.991z
	 M48.454,140.104c0.732-1.783,1.666-3.475,2.773-5.027c1.696-2.379,3.754-4.415,6.116-6.051c0.673-0.465,1.22-0.817,1.73-1.112
	l161.664-93.372v186.193H46.588l-0.012-71.166C46.575,146.327,47.207,143.14,48.454,140.104z M57.342,383.007
	c-0.541-0.377-1.112-0.82-1.817-1.412l-0.264-0.221c-0.568-0.491-1.12-1.013-1.573-1.482c-0.034-0.037-0.137-0.15-0.174-0.186
	c-1.084-1.138-2.068-2.388-2.924-3.719c-0.012-0.019-0.024-0.037-0.036-0.057c-1.257-1.966-2.232-4.087-2.886-6.281l-0.076-0.27
	c-0.127-0.444-0.244-0.891-0.348-1.35l-0.095-0.441c-0.081-0.389-0.153-0.781-0.219-1.198l-0.078-0.499
	c-0.054-0.401-0.094-0.804-0.131-1.222l-0.047-0.474c-0.037-0.561-0.063-1.125-0.063-1.701l-0.013-71.231h174.137v186.163
	L59.117,384.151C58.592,383.847,58.026,383.482,57.342,383.007z M465.363,364.105l-0.051,0.521
	c-0.035,0.406-0.076,0.811-0.128,1.194l-0.083,0.532c-0.064,0.404-0.137,0.805-0.218,1.19l-0.098,0.448
	c-0.104,0.457-0.223,0.909-0.352,1.358c-0.002,0.008-0.005,0.018-0.008,0.025l-0.063,0.227c-1.128,3.76-3.163,7.251-5.905,10.115
	l-0.081,0.089c-0.515,0.53-1.067,1.052-1.637,1.544l-0.289,0.241c-0.673,0.562-1.26,1.016-1.79,1.384
	c-0.673,0.465-1.22,0.817-1.73,1.112l-161.665,93.371V291.263h105.878c4.995,0,9.042-4.048,9.042-9.042s-4.047-9.042-9.042-9.042
	h-114.92c-4.995,0-9.042,4.048-9.042,9.042v205.682l-4.64,2.68c-7.711,4.452-17.291,4.455-25.001,0.005l-4.719-2.723V282.221
	c0-4.994-4.047-9.042-9.042-9.042H46.596l-0.006-34.36h183.187c4.995,0,9.042-4.048,9.042-9.042V24.095l4.64-2.68
	c7.711-4.452,17.291-4.455,25.001-0.005l4.719,2.723v205.642c0,4.994,4.047,9.042,9.042,9.042h183.18l0.006,34.36h-26.969
	c-4.995,0-9.042,4.048-9.042,9.042s4.047,9.042,9.042,9.042h26.973l0.012,71.18C465.425,363.01,465.399,363.573,465.363,364.105z"/>
<g>
</g>
<g>
</g>
<g>
</g>
<g>
</g>
<g>
</g>
<g>
</g>
<g>
</g>
<g>
</g>
<g>
</g>
<g>
</g>
<g>
</g>
<g>
</g>
<g>
</g>
<g>
</g>
<g>
</g>
</svg>
