<?xml version="1.0" encoding="UTF-8"?>
<svg xmlns="http://www.w3.org/2000/svg" xmlns:xlink="http://www.w3.org/1999/xlink" width="295.183pt" height="340.755pt" viewBox="0 0 295.183 340.755" version="1.1">
<defs>
<clipPath id="clip1">
  <path d="M 0 0 L 295.183594 0 L 295.183594 340.753906 L 0 340.753906 Z M 0 0 "/>
</clipPath>
<clipPath id="clip2">
  <path d="M 90 0 L 295.183594 0 L 295.183594 94 L 90 94 Z M 90 0 "/>
</clipPath>
<clipPath id="clip3">
  <path d="M 0 255 L 197 255 L 197 340.753906 L 0 340.753906 Z M 0 255 "/>
</clipPath>
<clipPath id="clip4">
  <path d="M 0 246 L 206 246 L 206 340.753906 L 0 340.753906 Z M 0 246 "/>
</clipPath>
<clipPath id="clip5">
  <path d="M 147 170 L 295 170 L 295 340.753906 L 147 340.753906 Z M 147 170 "/>
</clipPath>
<clipPath id="clip6">
  <path d="M 139 161 L 295.183594 161 L 295.183594 340.753906 L 139 340.753906 Z M 139 161 "/>
</clipPath>
<clipPath id="clip7">
  <path d="M 188 76 L 295.183594 76 L 295.183594 264 L 188 264 Z M 188 76 "/>
</clipPath>
</defs>
<g id="surface1">
<g clip-path="url(#clip1)" clip-rule="nonzero">
<path style="fill:none;stroke-width:0.59776;stroke-linecap:butt;stroke-linejoin:miter;stroke:rgb(0%,0%,0%);stroke-opacity:1;stroke-miterlimit:10;" d="M 147.295719 85.041062 L -0.00115625 170.080125 L -147.294125 85.041062 L -147.294125 -85.040969 L -0.00115625 -170.080031 L 147.295719 -85.040969 Z M 147.295719 85.041062 " transform="matrix(1,0,0,-1,147.591,170.377)"/>
</g>
<path style="fill:none;stroke-width:0.59776;stroke-linecap:butt;stroke-linejoin:miter;stroke:rgb(0%,0%,0%);stroke-opacity:1;stroke-miterlimit:10;" d="M -49.098813 85.041062 L -98.196469 -0.00190625 L -49.098813 -85.040969 L 49.0965 -85.040969 L 98.194156 -0.00190625 L 49.0965 85.041062 Z M -49.098813 85.041062 " transform="matrix(1,0,0,-1,147.591,170.377)"/>
<path style=" stroke:none;fill-rule:nonzero;fill:rgb(92.156982%,35.68573%,63.920593%);fill-opacity:1;" d="M 294.886719 85.335938 L 147.589844 0.296875 L 98.492188 85.335938 Z M 294.886719 85.335938 "/>
<g clip-path="url(#clip2)" clip-rule="nonzero">
<path style="fill:none;stroke-width:0.59776;stroke-linecap:butt;stroke-linejoin:miter;stroke:rgb(0%,0%,0%);stroke-opacity:1;stroke-miterlimit:10;" d="M 147.295719 85.041062 L -0.00115625 170.080125 L -49.098813 85.041062 Z M 147.295719 85.041062 " transform="matrix(1,0,0,-1,147.591,170.377)"/>
</g>
<path style="fill-rule:nonzero;fill:rgb(60.392761%,7.450867%,7.450867%);fill-opacity:1;stroke-width:0.59776;stroke-linecap:butt;stroke-linejoin:miter;stroke:rgb(0%,0%,0%);stroke-opacity:1;stroke-miterlimit:10;" d="M -0.00115625 170.080125 L -147.294125 85.041062 L -98.196469 -0.00190625 Z M -0.00115625 170.080125 " transform="matrix(1,0,0,-1,147.591,170.377)"/>
<path style="fill-rule:nonzero;fill:rgb(100%,64.704895%,0%);fill-opacity:1;stroke-width:0.59776;stroke-linecap:butt;stroke-linejoin:miter;stroke:rgb(0%,0%,0%);stroke-opacity:1;stroke-miterlimit:10;" d="M -147.294125 85.041062 L -147.294125 -85.040969 L -49.098813 -85.040969 Z M -147.294125 85.041062 " transform="matrix(1,0,0,-1,147.591,170.377)"/>
<g clip-path="url(#clip3)" clip-rule="nonzero">
<path style=" stroke:none;fill-rule:nonzero;fill:rgb(35.68573%,92.156982%,63.920593%);fill-opacity:1;" d="M 0.296875 255.417969 L 147.589844 340.457031 L 196.6875 255.417969 Z M 0.296875 255.417969 "/>
</g>
<g clip-path="url(#clip4)" clip-rule="nonzero">
<path style="fill:none;stroke-width:0.59776;stroke-linecap:butt;stroke-linejoin:miter;stroke:rgb(0%,0%,0%);stroke-opacity:1;stroke-miterlimit:10;" d="M -147.294125 -85.040969 L -0.00115625 -170.080031 L 49.0965 -85.040969 Z M -147.294125 -85.040969 " transform="matrix(1,0,0,-1,147.591,170.377)"/>
</g>
<g clip-path="url(#clip5)" clip-rule="nonzero">
<path style=" stroke:none;fill-rule:nonzero;fill:rgb(7.450867%,60.392761%,60.392761%);fill-opacity:1;" d="M 147.589844 340.457031 L 294.886719 255.417969 L 245.785156 170.378906 Z M 147.589844 340.457031 "/>
</g>
<g clip-path="url(#clip6)" clip-rule="nonzero">
<path style="fill:none;stroke-width:0.59776;stroke-linecap:butt;stroke-linejoin:miter;stroke:rgb(0%,0%,0%);stroke-opacity:1;stroke-miterlimit:10;" d="M -0.00115625 -170.080031 L 147.295719 -85.040969 L 98.194156 -0.00190625 Z M -0.00115625 -170.080031 " transform="matrix(1,0,0,-1,147.591,170.377)"/>
</g>
<path style=" stroke:none;fill-rule:nonzero;fill:rgb(0%,35.293579%,100%);fill-opacity:1;" d="M 294.886719 255.417969 L 294.886719 85.335938 L 196.6875 85.335938 Z M 294.886719 255.417969 "/>
<g clip-path="url(#clip7)" clip-rule="nonzero">
<path style="fill:none;stroke-width:0.59776;stroke-linecap:butt;stroke-linejoin:miter;stroke:rgb(0%,0%,0%);stroke-opacity:1;stroke-miterlimit:10;" d="M 147.295719 -85.040969 L 147.295719 85.041062 L 49.0965 85.041062 Z M 147.295719 -85.040969 " transform="matrix(1,0,0,-1,147.591,170.377)"/>
</g>
<path style="fill:none;stroke-width:0.59776;stroke-linecap:butt;stroke-linejoin:miter;stroke:rgb(0%,0%,0%);stroke-opacity:1;stroke-miterlimit:10;" d="M 49.0965 85.041062 L -49.098813 85.041062 L -98.196469 -0.00190625 L -49.098813 -85.040969 L 49.0965 -85.040969 L 98.194156 -0.00190625 Z M 49.0965 85.041062 " transform="matrix(1,0,0,-1,147.591,170.377)"/>
<path style="fill:none;stroke-width:0.59776;stroke-linecap:butt;stroke-linejoin:miter;stroke:rgb(0%,0%,0%);stroke-opacity:1;stroke-miterlimit:10;" d="M -49.098813 28.34575 L -49.098813 -28.345656 L -0.00115625 -56.693313 L 49.0965 -28.345656 L 49.0965 28.34575 L -0.00115625 56.693406 Z M -49.098813 28.34575 " transform="matrix(1,0,0,-1,147.591,170.377)"/>
<path style="fill-rule:nonzero;fill:rgb(92.156982%,35.68573%,63.920593%);fill-opacity:1;stroke-width:0.59776;stroke-linecap:butt;stroke-linejoin:miter;stroke:rgb(0%,0%,0%);stroke-opacity:1;stroke-miterlimit:10;" d="M 49.0965 85.041062 L -49.098813 85.041062 L -49.098813 28.34575 Z M 49.0965 85.041062 " transform="matrix(1,0,0,-1,147.591,170.377)"/>
<path style="fill-rule:nonzero;fill:rgb(60.392761%,7.450867%,7.450867%);fill-opacity:1;stroke-width:0.59776;stroke-linecap:butt;stroke-linejoin:miter;stroke:rgb(0%,0%,0%);stroke-opacity:1;stroke-miterlimit:10;" d="M -49.098813 85.041062 L -98.196469 -0.00190625 L -49.098813 -28.345656 Z M -49.098813 85.041062 " transform="matrix(1,0,0,-1,147.591,170.377)"/>
<path style="fill-rule:nonzero;fill:rgb(100%,64.704895%,0%);fill-opacity:1;stroke-width:0.59776;stroke-linecap:butt;stroke-linejoin:miter;stroke:rgb(0%,0%,0%);stroke-opacity:1;stroke-miterlimit:10;" d="M -98.196469 -0.00190625 L -49.098813 -85.040969 L -0.00115625 -56.693313 Z M -98.196469 -0.00190625 " transform="matrix(1,0,0,-1,147.591,170.377)"/>
<path style="fill-rule:nonzero;fill:rgb(35.68573%,92.156982%,63.920593%);fill-opacity:1;stroke-width:0.59776;stroke-linecap:butt;stroke-linejoin:miter;stroke:rgb(0%,0%,0%);stroke-opacity:1;stroke-miterlimit:10;" d="M -49.098813 -85.040969 L 49.0965 -85.040969 L 49.0965 -28.345656 Z M -49.098813 -85.040969 " transform="matrix(1,0,0,-1,147.591,170.377)"/>
<path style="fill-rule:nonzero;fill:rgb(7.450867%,60.392761%,60.392761%);fill-opacity:1;stroke-width:0.59776;stroke-linecap:butt;stroke-linejoin:miter;stroke:rgb(0%,0%,0%);stroke-opacity:1;stroke-miterlimit:10;" d="M 49.0965 -85.040969 L 98.194156 -0.00190625 L 49.0965 28.34575 Z M 49.0965 -85.040969 " transform="matrix(1,0,0,-1,147.591,170.377)"/>
<path style="fill-rule:nonzero;fill:rgb(0%,35.293579%,100%);fill-opacity:1;stroke-width:0.59776;stroke-linecap:butt;stroke-linejoin:miter;stroke:rgb(0%,0%,0%);stroke-opacity:1;stroke-miterlimit:10;" d="M 98.194156 -0.00190625 L 49.0965 85.041062 L -0.00115625 56.693406 Z M 98.194156 -0.00190625 " transform="matrix(1,0,0,-1,147.591,170.377)"/>
<path style="fill:none;stroke-width:0.59776;stroke-linecap:butt;stroke-linejoin:miter;stroke:rgb(0%,0%,0%);stroke-opacity:1;stroke-miterlimit:10;" d="M -0.00115625 56.693406 L -49.098813 28.34575 L -49.098813 -28.345656 L -0.00115625 -56.693313 L 49.0965 -28.345656 L 49.0965 28.34575 Z M -0.00115625 56.693406 " transform="matrix(1,0,0,-1,147.591,170.377)"/>
<path style="fill:none;stroke-width:0.59776;stroke-linecap:butt;stroke-linejoin:miter;stroke:rgb(0%,0%,0%);stroke-opacity:1;stroke-miterlimit:10;" d="M -32.731625 -0.00190625 L -16.364438 -28.345656 L 16.366031 -28.345656 L 32.733219 -0.00190625 L 16.366031 28.34575 L -16.364438 28.34575 Z M -32.731625 -0.00190625 " transform="matrix(1,0,0,-1,147.591,170.377)"/>
<path style="fill-rule:nonzero;fill:rgb(92.156982%,35.68573%,63.920593%);fill-opacity:1;stroke-width:0.59776;stroke-linecap:butt;stroke-linejoin:miter;stroke:rgb(0%,0%,0%);stroke-opacity:1;stroke-miterlimit:10;" d="M -0.00115625 56.693406 L -49.098813 28.34575 L -32.731625 -0.00190625 Z M -0.00115625 56.693406 " transform="matrix(1,0,0,-1,147.591,170.377)"/>
<path style="fill-rule:nonzero;fill:rgb(60.392761%,7.450867%,7.450867%);fill-opacity:1;stroke-width:0.59776;stroke-linecap:butt;stroke-linejoin:miter;stroke:rgb(0%,0%,0%);stroke-opacity:1;stroke-miterlimit:10;" d="M -49.098813 28.34575 L -49.098813 -28.345656 L -16.364438 -28.345656 Z M -49.098813 28.34575 " transform="matrix(1,0,0,-1,147.591,170.377)"/>
<path style="fill-rule:nonzero;fill:rgb(100%,64.704895%,0%);fill-opacity:1;stroke-width:0.59776;stroke-linecap:butt;stroke-linejoin:miter;stroke:rgb(0%,0%,0%);stroke-opacity:1;stroke-miterlimit:10;" d="M -49.098813 -28.345656 L -0.00115625 -56.693313 L 16.366031 -28.345656 Z M -49.098813 -28.345656 " transform="matrix(1,0,0,-1,147.591,170.377)"/>
<path style="fill-rule:nonzero;fill:rgb(35.68573%,92.156982%,63.920593%);fill-opacity:1;stroke-width:0.59776;stroke-linecap:butt;stroke-linejoin:miter;stroke:rgb(0%,0%,0%);stroke-opacity:1;stroke-miterlimit:10;" d="M -0.00115625 -56.693313 L 49.0965 -28.345656 L 32.733219 -0.00190625 Z M -0.00115625 -56.693313 " transform="matrix(1,0,0,-1,147.591,170.377)"/>
<path style="fill-rule:nonzero;fill:rgb(7.450867%,60.392761%,60.392761%);fill-opacity:1;stroke-width:0.59776;stroke-linecap:butt;stroke-linejoin:miter;stroke:rgb(0%,0%,0%);stroke-opacity:1;stroke-miterlimit:10;" d="M 49.0965 -28.345656 L 49.0965 28.34575 L 16.366031 28.34575 Z M 49.0965 -28.345656 " transform="matrix(1,0,0,-1,147.591,170.377)"/>
<path style="fill-rule:nonzero;fill:rgb(0%,35.293579%,100%);fill-opacity:1;stroke-width:0.59776;stroke-linecap:butt;stroke-linejoin:miter;stroke:rgb(0%,0%,0%);stroke-opacity:1;stroke-miterlimit:10;" d="M 49.0965 28.34575 L -0.00115625 56.693406 L -16.364438 28.34575 Z M 49.0965 28.34575 " transform="matrix(1,0,0,-1,147.591,170.377)"/>
<path style="fill:none;stroke-width:0.59776;stroke-linecap:butt;stroke-linejoin:miter;stroke:rgb(0%,0%,0%);stroke-opacity:1;stroke-miterlimit:10;" d="M -16.364438 28.34575 L -32.731625 -0.00190625 L -16.364438 -28.345656 L 16.366031 -28.345656 L 32.733219 -0.00190625 L 16.366031 28.34575 Z M -16.364438 28.34575 " transform="matrix(1,0,0,-1,147.591,170.377)"/>
<path style="fill:none;stroke-width:0.59776;stroke-linecap:butt;stroke-linejoin:miter;stroke:rgb(0%,0%,0%);stroke-opacity:1;stroke-miterlimit:10;" d="M -16.364438 -9.447219 L -0.00115625 -18.896438 L 16.366031 -9.447219 L 16.366031 9.447312 L -0.00115625 18.896531 L -16.364438 9.447312 Z M -16.364438 -9.447219 " transform="matrix(1,0,0,-1,147.591,170.377)"/>
<path style="fill-rule:nonzero;fill:rgb(92.156982%,35.68573%,63.920593%);fill-opacity:1;stroke-width:0.59776;stroke-linecap:butt;stroke-linejoin:miter;stroke:rgb(0%,0%,0%);stroke-opacity:1;stroke-miterlimit:10;" d="M -16.364438 28.34575 L -32.731625 -0.00190625 L -16.364438 -9.447219 Z M -16.364438 28.34575 " transform="matrix(1,0,0,-1,147.591,170.377)"/>
<path style="fill-rule:nonzero;fill:rgb(60.392761%,7.450867%,7.450867%);fill-opacity:1;stroke-width:0.59776;stroke-linecap:butt;stroke-linejoin:miter;stroke:rgb(0%,0%,0%);stroke-opacity:1;stroke-miterlimit:10;" d="M -32.731625 -0.00190625 L -16.364438 -28.345656 L -0.00115625 -18.896438 Z M -32.731625 -0.00190625 " transform="matrix(1,0,0,-1,147.591,170.377)"/>
<path style="fill-rule:nonzero;fill:rgb(100%,64.704895%,0%);fill-opacity:1;stroke-width:0.59776;stroke-linecap:butt;stroke-linejoin:miter;stroke:rgb(0%,0%,0%);stroke-opacity:1;stroke-miterlimit:10;" d="M -16.364438 -28.345656 L 16.366031 -28.345656 L 16.366031 -9.447219 Z M -16.364438 -28.345656 " transform="matrix(1,0,0,-1,147.591,170.377)"/>
<path style="fill-rule:nonzero;fill:rgb(35.68573%,92.156982%,63.920593%);fill-opacity:1;stroke-width:0.59776;stroke-linecap:butt;stroke-linejoin:miter;stroke:rgb(0%,0%,0%);stroke-opacity:1;stroke-miterlimit:10;" d="M 16.366031 -28.345656 L 32.733219 -0.00190625 L 16.366031 9.447312 Z M 16.366031 -28.345656 " transform="matrix(1,0,0,-1,147.591,170.377)"/>
<path style="fill-rule:nonzero;fill:rgb(7.450867%,60.392761%,60.392761%);fill-opacity:1;stroke-width:0.59776;stroke-linecap:butt;stroke-linejoin:miter;stroke:rgb(0%,0%,0%);stroke-opacity:1;stroke-miterlimit:10;" d="M 32.733219 -0.00190625 L 16.366031 28.34575 L -0.00115625 18.896531 Z M 32.733219 -0.00190625 " transform="matrix(1,0,0,-1,147.591,170.377)"/>
<path style="fill-rule:nonzero;fill:rgb(0%,35.293579%,100%);fill-opacity:1;stroke-width:0.59776;stroke-linecap:butt;stroke-linejoin:miter;stroke:rgb(0%,0%,0%);stroke-opacity:1;stroke-miterlimit:10;" d="M 16.366031 28.34575 L -16.364438 28.34575 L -16.364438 9.447312 Z M 16.366031 28.34575 " transform="matrix(1,0,0,-1,147.591,170.377)"/>
<path style="fill:none;stroke-width:0.59776;stroke-linecap:butt;stroke-linejoin:miter;stroke:rgb(0%,0%,0%);stroke-opacity:1;stroke-miterlimit:10;" d="M -16.364438 9.447312 L -16.364438 -9.447219 L -0.00115625 -18.896438 L 16.366031 -9.447219 L 16.366031 9.447312 L -0.00115625 18.896531 Z M -16.364438 9.447312 " transform="matrix(1,0,0,-1,147.591,170.377)"/>
<path style="fill:none;stroke-width:0.59776;stroke-linecap:butt;stroke-linejoin:miter;stroke:rgb(0%,0%,0%);stroke-opacity:1;stroke-miterlimit:10;" d="M -5.454281 -9.447219 L 5.455875 -9.447219 L 10.909 -0.00190625 L 5.455875 9.447312 L -5.454281 9.447312 L -10.911313 0.002 Z M -5.454281 -9.447219 " transform="matrix(1,0,0,-1,147.591,170.377)"/>
<path style="fill-rule:nonzero;fill:rgb(92.156982%,35.68573%,63.920593%);fill-opacity:1;stroke-width:0.59776;stroke-linecap:butt;stroke-linejoin:miter;stroke:rgb(0%,0%,0%);stroke-opacity:1;stroke-miterlimit:10;" d="M -16.364438 9.447312 L -16.364438 -9.447219 L -5.454281 -9.447219 Z M -16.364438 9.447312 " transform="matrix(1,0,0,-1,147.591,170.377)"/>
<path style="fill-rule:nonzero;fill:rgb(60.392761%,7.450867%,7.450867%);fill-opacity:1;stroke-width:0.59776;stroke-linecap:butt;stroke-linejoin:miter;stroke:rgb(0%,0%,0%);stroke-opacity:1;stroke-miterlimit:10;" d="M -16.364438 -9.447219 L -0.00115625 -18.896438 L 5.455875 -9.447219 Z M -16.364438 -9.447219 " transform="matrix(1,0,0,-1,147.591,170.377)"/>
<path style="fill-rule:nonzero;fill:rgb(100%,64.704895%,0%);fill-opacity:1;stroke-width:0.59776;stroke-linecap:butt;stroke-linejoin:miter;stroke:rgb(0%,0%,0%);stroke-opacity:1;stroke-miterlimit:10;" d="M -0.00115625 -18.896438 L 16.366031 -9.447219 L 10.909 -0.00190625 Z M -0.00115625 -18.896438 " transform="matrix(1,0,0,-1,147.591,170.377)"/>
<path style="fill-rule:nonzero;fill:rgb(35.68573%,92.156982%,63.920593%);fill-opacity:1;stroke-width:0.59776;stroke-linecap:butt;stroke-linejoin:miter;stroke:rgb(0%,0%,0%);stroke-opacity:1;stroke-miterlimit:10;" d="M 16.366031 -9.447219 L 16.366031 9.447312 L 5.455875 9.447312 Z M 16.366031 -9.447219 " transform="matrix(1,0,0,-1,147.591,170.377)"/>
<path style="fill-rule:nonzero;fill:rgb(7.450867%,60.392761%,60.392761%);fill-opacity:1;stroke-width:0.59776;stroke-linecap:butt;stroke-linejoin:miter;stroke:rgb(0%,0%,0%);stroke-opacity:1;stroke-miterlimit:10;" d="M 16.366031 9.447312 L -0.00115625 18.896531 L -5.454281 9.447312 Z M 16.366031 9.447312 " transform="matrix(1,0,0,-1,147.591,170.377)"/>
<path style="fill-rule:nonzero;fill:rgb(0%,35.293579%,100%);fill-opacity:1;stroke-width:0.59776;stroke-linecap:butt;stroke-linejoin:miter;stroke:rgb(0%,0%,0%);stroke-opacity:1;stroke-miterlimit:10;" d="M -0.00115625 18.896531 L -16.364438 9.447312 L -10.911313 0.002 Z M -0.00115625 18.896531 " transform="matrix(1,0,0,-1,147.591,170.377)"/>
<path style="fill:none;stroke-width:0.59776;stroke-linecap:butt;stroke-linejoin:miter;stroke:rgb(0%,0%,0%);stroke-opacity:1;stroke-miterlimit:10;" d="M -10.911313 -0.00190625 L -5.454281 -9.447219 L 5.455875 -9.447219 L 10.909 -0.00190625 L 5.455875 9.447312 L -5.454281 9.447312 Z M -10.911313 -0.00190625 " transform="matrix(1,0,0,-1,147.591,170.377)"/>
<path style="fill:none;stroke-width:0.59776;stroke-linecap:butt;stroke-linejoin:miter;stroke:rgb(0%,0%,0%);stroke-opacity:1;stroke-miterlimit:10;" d="M -0.00115625 -6.298781 L 5.455875 -3.150344 L 5.455875 3.150437 L -0.00115625 6.298875 L -5.454281 3.150437 L -5.454281 -3.150344 Z M -0.00115625 -6.298781 " transform="matrix(1,0,0,-1,147.591,170.377)"/>
<path style="fill-rule:nonzero;fill:rgb(92.156982%,35.68573%,63.920593%);fill-opacity:1;stroke-width:0.59776;stroke-linecap:butt;stroke-linejoin:miter;stroke:rgb(0%,0%,0%);stroke-opacity:1;stroke-miterlimit:10;" d="M -10.911313 -0.00190625 L -5.454281 -9.447219 L -0.00115625 -6.298781 Z M -10.911313 -0.00190625 " transform="matrix(1,0,0,-1,147.591,170.377)"/>
<path style="fill-rule:nonzero;fill:rgb(60.392761%,7.450867%,7.450867%);fill-opacity:1;stroke-width:0.59776;stroke-linecap:butt;stroke-linejoin:miter;stroke:rgb(0%,0%,0%);stroke-opacity:1;stroke-miterlimit:10;" d="M -5.454281 -9.447219 L 5.455875 -9.447219 L 5.455875 -3.150344 Z M -5.454281 -9.447219 " transform="matrix(1,0,0,-1,147.591,170.377)"/>
<path style="fill-rule:nonzero;fill:rgb(100%,64.704895%,0%);fill-opacity:1;stroke-width:0.59776;stroke-linecap:butt;stroke-linejoin:miter;stroke:rgb(0%,0%,0%);stroke-opacity:1;stroke-miterlimit:10;" d="M 5.455875 -9.447219 L 10.909 -0.00190625 L 5.455875 3.150437 Z M 5.455875 -9.447219 " transform="matrix(1,0,0,-1,147.591,170.377)"/>
<path style="fill-rule:nonzero;fill:rgb(35.68573%,92.156982%,63.920593%);fill-opacity:1;stroke-width:0.59776;stroke-linecap:butt;stroke-linejoin:miter;stroke:rgb(0%,0%,0%);stroke-opacity:1;stroke-miterlimit:10;" d="M 10.909 -0.00190625 L 5.455875 9.447312 L -0.00115625 6.298875 Z M 10.909 -0.00190625 " transform="matrix(1,0,0,-1,147.591,170.377)"/>
<path style="fill-rule:nonzero;fill:rgb(7.450867%,60.392761%,60.392761%);fill-opacity:1;stroke-width:0.59776;stroke-linecap:butt;stroke-linejoin:miter;stroke:rgb(0%,0%,0%);stroke-opacity:1;stroke-miterlimit:10;" d="M 5.455875 9.447312 L -5.454281 9.447312 L -5.454281 3.150437 Z M 5.455875 9.447312 " transform="matrix(1,0,0,-1,147.591,170.377)"/>
<path style="fill-rule:nonzero;fill:rgb(0%,35.293579%,100%);fill-opacity:1;stroke-width:0.59776;stroke-linecap:butt;stroke-linejoin:miter;stroke:rgb(0%,0%,0%);stroke-opacity:1;stroke-miterlimit:10;" d="M -5.454281 9.447312 L -10.911313 -0.00190625 L -5.454281 -3.150344 Z M -5.454281 9.447312 " transform="matrix(1,0,0,-1,147.591,170.377)"/>
<path style="fill:none;stroke-width:0.59776;stroke-linecap:butt;stroke-linejoin:miter;stroke:rgb(0%,0%,0%);stroke-opacity:1;stroke-miterlimit:10;" d="M -5.454281 -3.150344 L -0.00115625 -6.298781 L 5.455875 -3.150344 L 5.455875 3.150437 L -0.00115625 6.298875 L -5.454281 3.150437 Z M -5.454281 -3.150344 " transform="matrix(1,0,0,-1,147.591,170.377)"/>
<path style="fill:none;stroke-width:0.59776;stroke-linecap:butt;stroke-linejoin:miter;stroke:rgb(0%,0%,0%);stroke-opacity:1;stroke-miterlimit:10;" d="M 1.819156 -3.150344 L 3.635562 -0.00190625 L 1.819156 3.150437 L -1.817563 3.150437 L -3.637875 -0.00190625 L -1.817563 -3.150344 Z M 1.819156 -3.150344 " transform="matrix(1,0,0,-1,147.591,170.377)"/>
<path style="fill-rule:nonzero;fill:rgb(92.156982%,35.68573%,63.920593%);fill-opacity:1;stroke-width:0.59776;stroke-linecap:butt;stroke-linejoin:miter;stroke:rgb(0%,0%,0%);stroke-opacity:1;stroke-miterlimit:10;" d="M -5.454281 -3.150344 L -0.00115625 -6.298781 L 1.819156 -3.150344 Z M -5.454281 -3.150344 " transform="matrix(1,0,0,-1,147.591,170.377)"/>
<path style="fill-rule:nonzero;fill:rgb(60.392761%,7.450867%,7.450867%);fill-opacity:1;stroke-width:0.59776;stroke-linecap:butt;stroke-linejoin:miter;stroke:rgb(0%,0%,0%);stroke-opacity:1;stroke-miterlimit:10;" d="M -0.00115625 -6.298781 L 5.455875 -3.150344 L 3.635562 -0.00190625 Z M -0.00115625 -6.298781 " transform="matrix(1,0,0,-1,147.591,170.377)"/>
<path style="fill-rule:nonzero;fill:rgb(100%,64.704895%,0%);fill-opacity:1;stroke-width:0.59776;stroke-linecap:butt;stroke-linejoin:miter;stroke:rgb(0%,0%,0%);stroke-opacity:1;stroke-miterlimit:10;" d="M 5.455875 -3.150344 L 5.455875 3.150437 L 1.819156 3.150437 Z M 5.455875 -3.150344 " transform="matrix(1,0,0,-1,147.591,170.377)"/>
<path style="fill-rule:nonzero;fill:rgb(35.68573%,92.156982%,63.920593%);fill-opacity:1;stroke-width:0.59776;stroke-linecap:butt;stroke-linejoin:miter;stroke:rgb(0%,0%,0%);stroke-opacity:1;stroke-miterlimit:10;" d="M 5.455875 3.150437 L -0.00115625 6.298875 L -1.817563 3.150437 Z M 5.455875 3.150437 " transform="matrix(1,0,0,-1,147.591,170.377)"/>
<path style="fill-rule:nonzero;fill:rgb(7.450867%,60.392761%,60.392761%);fill-opacity:1;stroke-width:0.59776;stroke-linecap:butt;stroke-linejoin:miter;stroke:rgb(0%,0%,0%);stroke-opacity:1;stroke-miterlimit:10;" d="M -0.00115625 6.298875 L -5.454281 3.150437 L -3.637875 -0.00190625 Z M -0.00115625 6.298875 " transform="matrix(1,0,0,-1,147.591,170.377)"/>
<path style="fill-rule:nonzero;fill:rgb(0%,35.293579%,100%);fill-opacity:1;stroke-width:0.59776;stroke-linecap:butt;stroke-linejoin:miter;stroke:rgb(0%,0%,0%);stroke-opacity:1;stroke-miterlimit:10;" d="M -5.454281 3.150437 L -5.454281 -3.150344 L -1.817563 -3.150344 Z M -5.454281 3.150437 " transform="matrix(1,0,0,-1,147.591,170.377)"/>
<path style="fill:none;stroke-width:0.59776;stroke-linecap:butt;stroke-linejoin:miter;stroke:rgb(0%,0%,0%);stroke-opacity:1;stroke-miterlimit:10;" d="M -1.817563 -3.150344 L 1.819156 -3.150344 L 3.635562 -0.00190625 L 1.819156 3.150437 L -1.817563 3.150437 L -3.637875 -0.00190625 Z M -1.817563 -3.150344 " transform="matrix(1,0,0,-1,147.591,170.377)"/>
<path style="fill:none;stroke-width:0.59776;stroke-linecap:butt;stroke-linejoin:miter;stroke:rgb(0%,0%,0%);stroke-opacity:1;stroke-miterlimit:10;" d="M 1.819156 -1.048781 L 1.819156 1.048875 L -0.00115625 2.099656 L -1.817563 1.048875 L -1.817563 -1.048781 L -0.00115625 -2.099563 Z M 1.819156 -1.048781 " transform="matrix(1,0,0,-1,147.591,170.377)"/>
<path style="fill-rule:nonzero;fill:rgb(92.156982%,35.68573%,63.920593%);fill-opacity:1;stroke-width:0.59776;stroke-linecap:butt;stroke-linejoin:miter;stroke:rgb(0%,0%,0%);stroke-opacity:1;stroke-miterlimit:10;" d="M -1.817563 -3.150344 L 1.819156 -3.150344 L 1.819156 -1.048781 Z M -1.817563 -3.150344 " transform="matrix(1,0,0,-1,147.591,170.377)"/>
<path style="fill-rule:nonzero;fill:rgb(60.392761%,7.450867%,7.450867%);fill-opacity:1;stroke-width:0.59776;stroke-linecap:butt;stroke-linejoin:miter;stroke:rgb(0%,0%,0%);stroke-opacity:1;stroke-miterlimit:10;" d="M 1.819156 -3.150344 L 3.635562 -0.00190625 L 1.819156 1.048875 Z M 1.819156 -3.150344 " transform="matrix(1,0,0,-1,147.591,170.377)"/>
<path style="fill-rule:nonzero;fill:rgb(100%,64.704895%,0%);fill-opacity:1;stroke-width:0.59776;stroke-linecap:butt;stroke-linejoin:miter;stroke:rgb(0%,0%,0%);stroke-opacity:1;stroke-miterlimit:10;" d="M 3.635562 -0.00190625 L 1.819156 3.150437 L -0.00115625 2.099656 Z M 3.635562 -0.00190625 " transform="matrix(1,0,0,-1,147.591,170.377)"/>
<path style="fill-rule:nonzero;fill:rgb(35.68573%,92.156982%,63.920593%);fill-opacity:1;stroke-width:0.59776;stroke-linecap:butt;stroke-linejoin:miter;stroke:rgb(0%,0%,0%);stroke-opacity:1;stroke-miterlimit:10;" d="M 1.819156 3.150437 L -1.817563 3.150437 L -1.817563 1.048875 Z M 1.819156 3.150437 " transform="matrix(1,0,0,-1,147.591,170.377)"/>
<path style="fill-rule:nonzero;fill:rgb(7.450867%,60.392761%,60.392761%);fill-opacity:1;stroke-width:0.59776;stroke-linecap:butt;stroke-linejoin:miter;stroke:rgb(0%,0%,0%);stroke-opacity:1;stroke-miterlimit:10;" d="M -1.817563 3.150437 L -3.637875 -0.00190625 L -1.817563 -1.048781 Z M -1.817563 3.150437 " transform="matrix(1,0,0,-1,147.591,170.377)"/>
<path style="fill-rule:nonzero;fill:rgb(0%,35.293579%,100%);fill-opacity:1;stroke-width:0.59776;stroke-linecap:butt;stroke-linejoin:miter;stroke:rgb(0%,0%,0%);stroke-opacity:1;stroke-miterlimit:10;" d="M -3.637875 -0.00190625 L -1.817563 -3.150344 L -0.00115625 -2.099563 Z M -3.637875 -0.00190625 " transform="matrix(1,0,0,-1,147.591,170.377)"/>
<path style="fill:none;stroke-width:0.59776;stroke-linecap:butt;stroke-linejoin:miter;stroke:rgb(0%,0%,0%);stroke-opacity:1;stroke-miterlimit:10;" d="M -0.00115625 -2.099563 L 1.819156 -1.048781 L 1.819156 1.048875 L -0.00115625 2.099656 L -1.817563 1.048875 L -1.817563 -1.048781 Z M -0.00115625 -2.099563 " transform="matrix(1,0,0,-1,147.591,170.377)"/>
<path style="fill:none;stroke-width:0.59776;stroke-linecap:butt;stroke-linejoin:miter;stroke:rgb(0%,0%,0%);stroke-opacity:1;stroke-miterlimit:10;" d="M 1.213687 -0.00190625 L 0.604312 1.048875 L -0.606625 1.048875 L -1.212094 0.002 L -0.606625 -1.048781 L 0.604312 -1.048781 Z M 1.213687 -0.00190625 " transform="matrix(1,0,0,-1,147.591,170.377)"/>
<path style="fill-rule:nonzero;fill:rgb(92.156982%,35.68573%,63.920593%);fill-opacity:1;stroke-width:0.59776;stroke-linecap:butt;stroke-linejoin:miter;stroke:rgb(0%,0%,0%);stroke-opacity:1;stroke-miterlimit:10;" d="M -0.00115625 -2.099563 L 1.819156 -1.048781 L 1.213687 -0.00190625 Z M -0.00115625 -2.099563 " transform="matrix(1,0,0,-1,147.591,170.377)"/>
<path style="fill-rule:nonzero;fill:rgb(60.392761%,7.450867%,7.450867%);fill-opacity:1;stroke-width:0.59776;stroke-linecap:butt;stroke-linejoin:miter;stroke:rgb(0%,0%,0%);stroke-opacity:1;stroke-miterlimit:10;" d="M 1.819156 -1.048781 L 1.819156 1.048875 L 0.604312 1.048875 Z M 1.819156 -1.048781 " transform="matrix(1,0,0,-1,147.591,170.377)"/>
<path style="fill-rule:nonzero;fill:rgb(100%,64.704895%,0%);fill-opacity:1;stroke-width:0.59776;stroke-linecap:butt;stroke-linejoin:miter;stroke:rgb(0%,0%,0%);stroke-opacity:1;stroke-miterlimit:10;" d="M 1.819156 1.048875 L -0.00115625 2.099656 L -0.606625 1.048875 Z M 1.819156 1.048875 " transform="matrix(1,0,0,-1,147.591,170.377)"/>
<path style="fill-rule:nonzero;fill:rgb(35.68573%,92.156982%,63.920593%);fill-opacity:1;stroke-width:0.59776;stroke-linecap:butt;stroke-linejoin:miter;stroke:rgb(0%,0%,0%);stroke-opacity:1;stroke-miterlimit:10;" d="M -0.00115625 2.099656 L -1.817563 1.048875 L -1.212094 0.002 Z M -0.00115625 2.099656 " transform="matrix(1,0,0,-1,147.591,170.377)"/>
<path style="fill-rule:nonzero;fill:rgb(7.450867%,60.392761%,60.392761%);fill-opacity:1;stroke-width:0.59776;stroke-linecap:butt;stroke-linejoin:miter;stroke:rgb(0%,0%,0%);stroke-opacity:1;stroke-miterlimit:10;" d="M -1.817563 1.048875 L -1.817563 -1.048781 L -0.606625 -1.048781 Z M -1.817563 1.048875 " transform="matrix(1,0,0,-1,147.591,170.377)"/>
<path style="fill-rule:nonzero;fill:rgb(0%,35.293579%,100%);fill-opacity:1;stroke-width:0.59776;stroke-linecap:butt;stroke-linejoin:miter;stroke:rgb(0%,0%,0%);stroke-opacity:1;stroke-miterlimit:10;" d="M -1.817563 -1.048781 L -0.00115625 -2.099563 L 0.604312 -1.048781 Z M -1.817563 -1.048781 " transform="matrix(1,0,0,-1,147.591,170.377)"/>
<path style="fill:none;stroke-width:0.59776;stroke-linecap:butt;stroke-linejoin:miter;stroke:rgb(0%,0%,0%);stroke-opacity:1;stroke-miterlimit:10;" d="M 0.604312 -1.048781 L 1.213687 -0.00190625 L 0.604312 1.048875 L -0.606625 1.048875 L -1.212094 -0.00190625 L -0.606625 -1.048781 Z M 0.604312 -1.048781 " transform="matrix(1,0,0,-1,147.591,170.377)"/>
<path style="fill:none;stroke-width:0.59776;stroke-linecap:butt;stroke-linejoin:miter;stroke:rgb(0%,0%,0%);stroke-opacity:1;stroke-miterlimit:10;" d="M 0.604312 0.349656 L -0.00115625 0.701219 L -0.606625 0.349656 L -0.606625 -0.349563 L -0.00115625 -0.701125 L 0.604312 -0.349563 Z M 0.604312 0.349656 " transform="matrix(1,0,0,-1,147.591,170.377)"/>
<path style="fill-rule:nonzero;fill:rgb(92.156982%,35.68573%,63.920593%);fill-opacity:1;stroke-width:0.59776;stroke-linecap:butt;stroke-linejoin:miter;stroke:rgb(0%,0%,0%);stroke-opacity:1;stroke-miterlimit:10;" d="M 0.604312 -1.048781 L 1.213687 -0.00190625 L 0.604312 0.349656 Z M 0.604312 -1.048781 " transform="matrix(1,0,0,-1,147.591,170.377)"/>
<path style="fill-rule:nonzero;fill:rgb(60.392761%,7.450867%,7.450867%);fill-opacity:1;stroke-width:0.59776;stroke-linecap:butt;stroke-linejoin:miter;stroke:rgb(0%,0%,0%);stroke-opacity:1;stroke-miterlimit:10;" d="M 1.213687 -0.00190625 L 0.604312 1.048875 L -0.00115625 0.701219 Z M 1.213687 -0.00190625 " transform="matrix(1,0,0,-1,147.591,170.377)"/>
<path style="fill-rule:nonzero;fill:rgb(100%,64.704895%,0%);fill-opacity:1;stroke-width:0.59776;stroke-linecap:butt;stroke-linejoin:miter;stroke:rgb(0%,0%,0%);stroke-opacity:1;stroke-miterlimit:10;" d="M 0.604312 1.048875 L -0.606625 1.048875 L -0.606625 0.349656 Z M 0.604312 1.048875 " transform="matrix(1,0,0,-1,147.591,170.377)"/>
<path style="fill-rule:nonzero;fill:rgb(35.68573%,92.156982%,63.920593%);fill-opacity:1;stroke-width:0.59776;stroke-linecap:butt;stroke-linejoin:miter;stroke:rgb(0%,0%,0%);stroke-opacity:1;stroke-miterlimit:10;" d="M -0.606625 1.048875 L -1.212094 -0.00190625 L -0.606625 -0.349563 Z M -0.606625 1.048875 " transform="matrix(1,0,0,-1,147.591,170.377)"/>
<path style="fill-rule:nonzero;fill:rgb(7.450867%,60.392761%,60.392761%);fill-opacity:1;stroke-width:0.59776;stroke-linecap:butt;stroke-linejoin:miter;stroke:rgb(0%,0%,0%);stroke-opacity:1;stroke-miterlimit:10;" d="M -1.212094 -0.00190625 L -0.606625 -1.048781 L -0.00115625 -0.701125 Z M -1.212094 -0.00190625 " transform="matrix(1,0,0,-1,147.591,170.377)"/>
<path style="fill-rule:nonzero;fill:rgb(0%,35.293579%,100%);fill-opacity:1;stroke-width:0.59776;stroke-linecap:butt;stroke-linejoin:miter;stroke:rgb(0%,0%,0%);stroke-opacity:1;stroke-miterlimit:10;" d="M -0.606625 -1.048781 L 0.604312 -1.048781 L 0.604312 -0.349563 Z M -0.606625 -1.048781 " transform="matrix(1,0,0,-1,147.591,170.377)"/>
</g>
</svg>
