<?xml version="1.0" encoding="UTF-8"?>
<svg xmlns="http://www.w3.org/2000/svg" xmlns:xlink="http://www.w3.org/1999/xlink" width="147.89pt" height="170.676pt" viewBox="0 0 147.89 170.676" version="1.1">
<defs>
<clipPath id="clip1">
  <path d="M 0 0 L 147.890625 0 L 147.890625 170.675781 L 0 170.675781 Z M 0 0 "/>
</clipPath>
<clipPath id="clip2">
  <path d="M 49 0 L 147.890625 0 L 147.890625 43 L 49 43 Z M 49 0 "/>
</clipPath>
<clipPath id="clip3">
  <path d="M 40 0 L 147.890625 0 L 147.890625 52 L 40 52 Z M 40 0 "/>
</clipPath>
<clipPath id="clip4">
  <path d="M 0 127 L 99 127 L 99 170.675781 L 0 170.675781 Z M 0 127 "/>
</clipPath>
<clipPath id="clip5">
  <path d="M 0 119 L 107 119 L 107 170.675781 L 0 170.675781 Z M 0 119 "/>
</clipPath>
<clipPath id="clip6">
  <path d="M 73 85 L 147.890625 85 L 147.890625 170.675781 L 73 170.675781 Z M 73 85 "/>
</clipPath>
<clipPath id="clip7">
  <path d="M 65 76 L 147.890625 76 L 147.890625 170.675781 L 65 170.675781 Z M 65 76 "/>
</clipPath>
<clipPath id="clip8">
  <path d="M 98 42 L 147.890625 42 L 147.890625 128 L 98 128 Z M 98 42 "/>
</clipPath>
<clipPath id="clip9">
  <path d="M 90 34 L 147.890625 34 L 147.890625 137 L 90 137 Z M 90 34 "/>
</clipPath>
</defs>
<g id="surface1">
<g clip-path="url(#clip1)" clip-rule="nonzero">
<path style="fill:none;stroke-width:0.59776;stroke-linecap:butt;stroke-linejoin:miter;stroke:rgb(0%,0%,0%);stroke-opacity:1;stroke-miterlimit:10;" d="M 73.64875 42.521594 L 0.0003125 85.041125 L -73.648125 42.521594 L -73.648125 -42.521375 L 0.0003125 -85.040906 L 73.64875 -42.521375 Z M 73.64875 42.521594 " transform="matrix(1,0,0,-1,73.945,85.338)"/>
</g>
<path style="fill:none;stroke-width:0.59776;stroke-linecap:butt;stroke-linejoin:miter;stroke:rgb(0%,0%,0%);stroke-opacity:1;stroke-miterlimit:10;" d="M -24.550469 42.517687 L -49.097344 -0.00184375 L -24.550469 -42.521375 L 24.547187 -42.521375 L 49.097969 -0.00184375 L 24.547187 42.517687 Z M -24.550469 42.517687 " transform="matrix(1,0,0,-1,73.945,85.338)"/>
<g clip-path="url(#clip2)" clip-rule="nonzero">
<path style=" stroke:none;fill-rule:nonzero;fill:rgb(92.156982%,35.68573%,63.920593%);fill-opacity:1;" d="M 147.59375 42.816406 L 73.945312 0.296875 L 49.394531 42.820312 Z M 147.59375 42.816406 "/>
</g>
<g clip-path="url(#clip3)" clip-rule="nonzero">
<path style="fill:none;stroke-width:0.59776;stroke-linecap:butt;stroke-linejoin:miter;stroke:rgb(0%,0%,0%);stroke-opacity:1;stroke-miterlimit:10;" d="M 73.64875 42.521594 L 0.0003125 85.041125 L -24.550469 42.517687 Z M 73.64875 42.521594 " transform="matrix(1,0,0,-1,73.945,85.338)"/>
</g>
<path style="fill-rule:nonzero;fill:rgb(60.392761%,7.450867%,7.450867%);fill-opacity:1;stroke-width:0.59776;stroke-linecap:butt;stroke-linejoin:miter;stroke:rgb(0%,0%,0%);stroke-opacity:1;stroke-miterlimit:10;" d="M 0.0003125 85.041125 L -73.648125 42.521594 L -49.097344 -0.00184375 Z M 0.0003125 85.041125 " transform="matrix(1,0,0,-1,73.945,85.338)"/>
<path style="fill-rule:nonzero;fill:rgb(100%,64.704895%,0%);fill-opacity:1;stroke-width:0.59776;stroke-linecap:butt;stroke-linejoin:miter;stroke:rgb(0%,0%,0%);stroke-opacity:1;stroke-miterlimit:10;" d="M -73.648125 42.521594 L -73.648125 -42.521375 L -24.550469 -42.521375 Z M -73.648125 42.521594 " transform="matrix(1,0,0,-1,73.945,85.338)"/>
<g clip-path="url(#clip4)" clip-rule="nonzero">
<path style=" stroke:none;fill-rule:nonzero;fill:rgb(35.68573%,92.156982%,63.920593%);fill-opacity:1;" d="M 0.296875 127.859375 L 73.945312 170.378906 L 98.492188 127.859375 Z M 0.296875 127.859375 "/>
</g>
<g clip-path="url(#clip5)" clip-rule="nonzero">
<path style="fill:none;stroke-width:0.59776;stroke-linecap:butt;stroke-linejoin:miter;stroke:rgb(0%,0%,0%);stroke-opacity:1;stroke-miterlimit:10;" d="M -73.648125 -42.521375 L 0.0003125 -85.040906 L 24.547187 -42.521375 Z M -73.648125 -42.521375 " transform="matrix(1,0,0,-1,73.945,85.338)"/>
</g>
<g clip-path="url(#clip6)" clip-rule="nonzero">
<path style=" stroke:none;fill-rule:nonzero;fill:rgb(7.450867%,60.392761%,60.392761%);fill-opacity:1;" d="M 73.945312 170.378906 L 147.59375 127.859375 L 123.042969 85.339844 Z M 73.945312 170.378906 "/>
</g>
<g clip-path="url(#clip7)" clip-rule="nonzero">
<path style="fill:none;stroke-width:0.59776;stroke-linecap:butt;stroke-linejoin:miter;stroke:rgb(0%,0%,0%);stroke-opacity:1;stroke-miterlimit:10;" d="M 0.0003125 -85.040906 L 73.64875 -42.521375 L 49.097969 -0.00184375 Z M 0.0003125 -85.040906 " transform="matrix(1,0,0,-1,73.945,85.338)"/>
</g>
<g clip-path="url(#clip8)" clip-rule="nonzero">
<path style=" stroke:none;fill-rule:nonzero;fill:rgb(0%,35.293579%,100%);fill-opacity:1;" d="M 147.59375 127.859375 L 147.59375 42.816406 L 98.492188 42.820312 Z M 147.59375 127.859375 "/>
</g>
<g clip-path="url(#clip9)" clip-rule="nonzero">
<path style="fill:none;stroke-width:0.59776;stroke-linecap:butt;stroke-linejoin:miter;stroke:rgb(0%,0%,0%);stroke-opacity:1;stroke-miterlimit:10;" d="M 73.64875 -42.521375 L 73.64875 42.521594 L 24.547187 42.517687 Z M 73.64875 -42.521375 " transform="matrix(1,0,0,-1,73.945,85.338)"/>
</g>
<path style="fill:none;stroke-width:0.59776;stroke-linecap:butt;stroke-linejoin:miter;stroke:rgb(0%,0%,0%);stroke-opacity:1;stroke-miterlimit:10;" d="M 24.547187 42.521594 L -24.550469 42.521594 L -49.097344 -0.00184375 L -24.550469 -42.521375 L 24.547187 -42.521375 L 49.097969 -0.00184375 Z M 24.547187 42.521594 " transform="matrix(1,0,0,-1,73.945,85.338)"/>
<path style="fill:none;stroke-width:0.59776;stroke-linecap:butt;stroke-linejoin:miter;stroke:rgb(0%,0%,0%);stroke-opacity:1;stroke-miterlimit:10;" d="M -24.550469 14.173937 L -24.550469 -14.173719 L 0.0003125 -28.345594 L 24.547187 -14.173719 L 24.547187 14.173937 L 0.0003125 28.345812 Z M -24.550469 14.173937 " transform="matrix(1,0,0,-1,73.945,85.338)"/>
<path style="fill-rule:nonzero;fill:rgb(92.156982%,35.68573%,63.920593%);fill-opacity:1;stroke-width:0.59776;stroke-linecap:butt;stroke-linejoin:miter;stroke:rgb(0%,0%,0%);stroke-opacity:1;stroke-miterlimit:10;" d="M 24.547187 42.521594 L -24.550469 42.521594 L -24.550469 14.173937 Z M 24.547187 42.521594 " transform="matrix(1,0,0,-1,73.945,85.338)"/>
<path style="fill-rule:nonzero;fill:rgb(60.392761%,7.450867%,7.450867%);fill-opacity:1;stroke-width:0.59776;stroke-linecap:butt;stroke-linejoin:miter;stroke:rgb(0%,0%,0%);stroke-opacity:1;stroke-miterlimit:10;" d="M -24.550469 42.521594 L -49.097344 -0.00184375 L -24.550469 -14.173719 Z M -24.550469 42.521594 " transform="matrix(1,0,0,-1,73.945,85.338)"/>
<path style="fill-rule:nonzero;fill:rgb(100%,64.704895%,0%);fill-opacity:1;stroke-width:0.59776;stroke-linecap:butt;stroke-linejoin:miter;stroke:rgb(0%,0%,0%);stroke-opacity:1;stroke-miterlimit:10;" d="M -49.097344 -0.00184375 L -24.550469 -42.521375 L 0.0003125 -28.345594 Z M -49.097344 -0.00184375 " transform="matrix(1,0,0,-1,73.945,85.338)"/>
<path style="fill-rule:nonzero;fill:rgb(35.68573%,92.156982%,63.920593%);fill-opacity:1;stroke-width:0.59776;stroke-linecap:butt;stroke-linejoin:miter;stroke:rgb(0%,0%,0%);stroke-opacity:1;stroke-miterlimit:10;" d="M -24.550469 -42.521375 L 24.547187 -42.521375 L 24.547187 -14.173719 Z M -24.550469 -42.521375 " transform="matrix(1,0,0,-1,73.945,85.338)"/>
<path style="fill-rule:nonzero;fill:rgb(7.450867%,60.392761%,60.392761%);fill-opacity:1;stroke-width:0.59776;stroke-linecap:butt;stroke-linejoin:miter;stroke:rgb(0%,0%,0%);stroke-opacity:1;stroke-miterlimit:10;" d="M 24.547187 -42.521375 L 49.097969 -0.00184375 L 24.547187 14.173937 Z M 24.547187 -42.521375 " transform="matrix(1,0,0,-1,73.945,85.338)"/>
<path style="fill-rule:nonzero;fill:rgb(0%,35.293579%,100%);fill-opacity:1;stroke-width:0.59776;stroke-linecap:butt;stroke-linejoin:miter;stroke:rgb(0%,0%,0%);stroke-opacity:1;stroke-miterlimit:10;" d="M 49.097969 -0.00184375 L 24.547187 42.521594 L 0.0003125 28.345812 Z M 49.097969 -0.00184375 " transform="matrix(1,0,0,-1,73.945,85.338)"/>
<path style="fill:none;stroke-width:0.59776;stroke-linecap:butt;stroke-linejoin:miter;stroke:rgb(0%,0%,0%);stroke-opacity:1;stroke-miterlimit:10;" d="M 0.0003125 28.345812 L -24.550469 14.173937 L -24.550469 -14.173719 L 0.0003125 -28.345594 L 24.547187 -14.173719 L 24.547187 14.173937 Z M 0.0003125 28.345812 " transform="matrix(1,0,0,-1,73.945,85.338)"/>
<path style="fill:none;stroke-width:0.59776;stroke-linecap:butt;stroke-linejoin:miter;stroke:rgb(0%,0%,0%);stroke-opacity:1;stroke-miterlimit:10;" d="M -16.366875 -0.00184375 L -8.183281 -14.173719 L 8.183906 -14.173719 L 16.3675 -0.00184375 L 8.183906 14.173937 L -8.183281 14.173937 Z M -16.366875 -0.00184375 " transform="matrix(1,0,0,-1,73.945,85.338)"/>
<path style="fill-rule:nonzero;fill:rgb(92.156982%,35.68573%,63.920593%);fill-opacity:1;stroke-width:0.59776;stroke-linecap:butt;stroke-linejoin:miter;stroke:rgb(0%,0%,0%);stroke-opacity:1;stroke-miterlimit:10;" d="M 0.0003125 28.345812 L -24.550469 14.173937 L -16.366875 -0.00184375 Z M 0.0003125 28.345812 " transform="matrix(1,0,0,-1,73.945,85.338)"/>
<path style="fill-rule:nonzero;fill:rgb(60.392761%,7.450867%,7.450867%);fill-opacity:1;stroke-width:0.59776;stroke-linecap:butt;stroke-linejoin:miter;stroke:rgb(0%,0%,0%);stroke-opacity:1;stroke-miterlimit:10;" d="M -24.550469 14.173937 L -24.550469 -14.173719 L -8.183281 -14.173719 Z M -24.550469 14.173937 " transform="matrix(1,0,0,-1,73.945,85.338)"/>
<path style="fill-rule:nonzero;fill:rgb(100%,64.704895%,0%);fill-opacity:1;stroke-width:0.59776;stroke-linecap:butt;stroke-linejoin:miter;stroke:rgb(0%,0%,0%);stroke-opacity:1;stroke-miterlimit:10;" d="M -24.550469 -14.173719 L 0.0003125 -28.345594 L 8.183906 -14.173719 Z M -24.550469 -14.173719 " transform="matrix(1,0,0,-1,73.945,85.338)"/>
<path style="fill-rule:nonzero;fill:rgb(35.68573%,92.156982%,63.920593%);fill-opacity:1;stroke-width:0.59776;stroke-linecap:butt;stroke-linejoin:miter;stroke:rgb(0%,0%,0%);stroke-opacity:1;stroke-miterlimit:10;" d="M 0.0003125 -28.345594 L 24.547187 -14.173719 L 16.3675 -0.00184375 Z M 0.0003125 -28.345594 " transform="matrix(1,0,0,-1,73.945,85.338)"/>
<path style="fill-rule:nonzero;fill:rgb(7.450867%,60.392761%,60.392761%);fill-opacity:1;stroke-width:0.59776;stroke-linecap:butt;stroke-linejoin:miter;stroke:rgb(0%,0%,0%);stroke-opacity:1;stroke-miterlimit:10;" d="M 24.547187 -14.173719 L 24.547187 14.173937 L 8.183906 14.173937 Z M 24.547187 -14.173719 " transform="matrix(1,0,0,-1,73.945,85.338)"/>
<path style="fill-rule:nonzero;fill:rgb(0%,35.293579%,100%);fill-opacity:1;stroke-width:0.59776;stroke-linecap:butt;stroke-linejoin:miter;stroke:rgb(0%,0%,0%);stroke-opacity:1;stroke-miterlimit:10;" d="M 24.547187 14.173937 L 0.0003125 28.345812 L -8.183281 14.173937 Z M 24.547187 14.173937 " transform="matrix(1,0,0,-1,73.945,85.338)"/>
<path style="fill:none;stroke-width:0.59776;stroke-linecap:butt;stroke-linejoin:miter;stroke:rgb(0%,0%,0%);stroke-opacity:1;stroke-miterlimit:10;" d="M -8.183281 14.173937 L -16.366875 -0.00184375 L -8.183281 -14.173719 L 8.183906 -14.173719 L 16.3675 -0.00184375 L 8.183906 14.173937 Z M -8.183281 14.173937 " transform="matrix(1,0,0,-1,73.945,85.338)"/>
<path style="fill:none;stroke-width:0.59776;stroke-linecap:butt;stroke-linejoin:miter;stroke:rgb(0%,0%,0%);stroke-opacity:1;stroke-miterlimit:10;" d="M -8.183281 -4.7245 L 0.0003125 -9.447156 L 8.183906 -4.7245 L 8.183906 4.724719 L 0.0003125 9.447375 L -8.183281 4.724719 Z M -8.183281 -4.7245 " transform="matrix(1,0,0,-1,73.945,85.338)"/>
<path style="fill-rule:nonzero;fill:rgb(92.156982%,35.68573%,63.920593%);fill-opacity:1;stroke-width:0.59776;stroke-linecap:butt;stroke-linejoin:miter;stroke:rgb(0%,0%,0%);stroke-opacity:1;stroke-miterlimit:10;" d="M -8.183281 14.173937 L -16.366875 -0.00184375 L -8.183281 -4.7245 Z M -8.183281 14.173937 " transform="matrix(1,0,0,-1,73.945,85.338)"/>
<path style="fill-rule:nonzero;fill:rgb(60.392761%,7.450867%,7.450867%);fill-opacity:1;stroke-width:0.59776;stroke-linecap:butt;stroke-linejoin:miter;stroke:rgb(0%,0%,0%);stroke-opacity:1;stroke-miterlimit:10;" d="M -16.366875 -0.00184375 L -8.183281 -14.173719 L 0.0003125 -9.447156 Z M -16.366875 -0.00184375 " transform="matrix(1,0,0,-1,73.945,85.338)"/>
<path style="fill-rule:nonzero;fill:rgb(100%,64.704895%,0%);fill-opacity:1;stroke-width:0.59776;stroke-linecap:butt;stroke-linejoin:miter;stroke:rgb(0%,0%,0%);stroke-opacity:1;stroke-miterlimit:10;" d="M -8.183281 -14.173719 L 8.183906 -14.173719 L 8.183906 -4.7245 Z M -8.183281 -14.173719 " transform="matrix(1,0,0,-1,73.945,85.338)"/>
<path style="fill-rule:nonzero;fill:rgb(35.68573%,92.156982%,63.920593%);fill-opacity:1;stroke-width:0.59776;stroke-linecap:butt;stroke-linejoin:miter;stroke:rgb(0%,0%,0%);stroke-opacity:1;stroke-miterlimit:10;" d="M 8.183906 -14.173719 L 16.3675 -0.00184375 L 8.183906 4.724719 Z M 8.183906 -14.173719 " transform="matrix(1,0,0,-1,73.945,85.338)"/>
<path style="fill-rule:nonzero;fill:rgb(7.450867%,60.392761%,60.392761%);fill-opacity:1;stroke-width:0.59776;stroke-linecap:butt;stroke-linejoin:miter;stroke:rgb(0%,0%,0%);stroke-opacity:1;stroke-miterlimit:10;" d="M 16.3675 -0.00184375 L 8.183906 14.173937 L 0.0003125 9.447375 Z M 16.3675 -0.00184375 " transform="matrix(1,0,0,-1,73.945,85.338)"/>
<path style="fill-rule:nonzero;fill:rgb(0%,35.293579%,100%);fill-opacity:1;stroke-width:0.59776;stroke-linecap:butt;stroke-linejoin:miter;stroke:rgb(0%,0%,0%);stroke-opacity:1;stroke-miterlimit:10;" d="M 8.183906 14.173937 L -8.183281 14.173937 L -8.183281 4.724719 Z M 8.183906 14.173937 " transform="matrix(1,0,0,-1,73.945,85.338)"/>
<path style="fill:none;stroke-width:0.59776;stroke-linecap:butt;stroke-linejoin:miter;stroke:rgb(0%,0%,0%);stroke-opacity:1;stroke-miterlimit:10;" d="M -8.183281 4.724719 L -8.183281 -4.7245 L 0.0003125 -9.447156 L 8.183906 -4.7245 L 8.183906 4.724719 L 0.0003125 9.447375 Z M -8.183281 4.724719 " transform="matrix(1,0,0,-1,73.945,85.338)"/>
<path style="fill:none;stroke-width:0.59776;stroke-linecap:butt;stroke-linejoin:miter;stroke:rgb(0%,0%,0%);stroke-opacity:1;stroke-miterlimit:10;" d="M -2.72625 -4.7245 L 2.726875 -4.7245 L 5.453437 -0.00184375 L 2.726875 4.724719 L -2.72625 4.724719 L -5.456719 -0.00184375 Z M -2.72625 -4.7245 " transform="matrix(1,0,0,-1,73.945,85.338)"/>
<path style="fill-rule:nonzero;fill:rgb(92.156982%,35.68573%,63.920593%);fill-opacity:1;stroke-width:0.59776;stroke-linecap:butt;stroke-linejoin:miter;stroke:rgb(0%,0%,0%);stroke-opacity:1;stroke-miterlimit:10;" d="M -8.183281 4.724719 L -8.183281 -4.7245 L -2.72625 -4.7245 Z M -8.183281 4.724719 " transform="matrix(1,0,0,-1,73.945,85.338)"/>
<path style="fill-rule:nonzero;fill:rgb(60.392761%,7.450867%,7.450867%);fill-opacity:1;stroke-width:0.59776;stroke-linecap:butt;stroke-linejoin:miter;stroke:rgb(0%,0%,0%);stroke-opacity:1;stroke-miterlimit:10;" d="M -8.183281 -4.7245 L 0.0003125 -9.447156 L 2.726875 -4.7245 Z M -8.183281 -4.7245 " transform="matrix(1,0,0,-1,73.945,85.338)"/>
<path style="fill-rule:nonzero;fill:rgb(100%,64.704895%,0%);fill-opacity:1;stroke-width:0.59776;stroke-linecap:butt;stroke-linejoin:miter;stroke:rgb(0%,0%,0%);stroke-opacity:1;stroke-miterlimit:10;" d="M 0.0003125 -9.447156 L 8.183906 -4.7245 L 5.453437 -0.00184375 Z M 0.0003125 -9.447156 " transform="matrix(1,0,0,-1,73.945,85.338)"/>
<path style="fill-rule:nonzero;fill:rgb(35.68573%,92.156982%,63.920593%);fill-opacity:1;stroke-width:0.59776;stroke-linecap:butt;stroke-linejoin:miter;stroke:rgb(0%,0%,0%);stroke-opacity:1;stroke-miterlimit:10;" d="M 8.183906 -4.7245 L 8.183906 4.724719 L 2.726875 4.724719 Z M 8.183906 -4.7245 " transform="matrix(1,0,0,-1,73.945,85.338)"/>
<path style="fill-rule:nonzero;fill:rgb(7.450867%,60.392761%,60.392761%);fill-opacity:1;stroke-width:0.59776;stroke-linecap:butt;stroke-linejoin:miter;stroke:rgb(0%,0%,0%);stroke-opacity:1;stroke-miterlimit:10;" d="M 8.183906 4.724719 L 0.0003125 9.447375 L -2.72625 4.724719 Z M 8.183906 4.724719 " transform="matrix(1,0,0,-1,73.945,85.338)"/>
<path style="fill-rule:nonzero;fill:rgb(0%,35.293579%,100%);fill-opacity:1;stroke-width:0.59776;stroke-linecap:butt;stroke-linejoin:miter;stroke:rgb(0%,0%,0%);stroke-opacity:1;stroke-miterlimit:10;" d="M 0.0003125 9.447375 L -8.183281 4.724719 L -5.456719 -0.00184375 Z M 0.0003125 9.447375 " transform="matrix(1,0,0,-1,73.945,85.338)"/>
<path style="fill:none;stroke-width:0.59776;stroke-linecap:butt;stroke-linejoin:miter;stroke:rgb(0%,0%,0%);stroke-opacity:1;stroke-miterlimit:10;" d="M -5.456719 -0.00184375 L -2.72625 -4.7245 L 2.726875 -4.7245 L 5.453437 -0.00184375 L 2.726875 4.724719 L -2.72625 4.724719 Z M -5.456719 -0.00184375 " transform="matrix(1,0,0,-1,73.945,85.338)"/>
<path style="fill:none;stroke-width:0.59776;stroke-linecap:butt;stroke-linejoin:miter;stroke:rgb(0%,0%,0%);stroke-opacity:1;stroke-miterlimit:10;" d="M 0.0003125 -3.150281 L 2.726875 -1.576063 L 2.726875 1.576281 L 0.0003125 3.1505 L -2.72625 1.576281 L -2.72625 -1.576063 Z M 0.0003125 -3.150281 " transform="matrix(1,0,0,-1,73.945,85.338)"/>
<path style="fill-rule:nonzero;fill:rgb(92.156982%,35.68573%,63.920593%);fill-opacity:1;stroke-width:0.59776;stroke-linecap:butt;stroke-linejoin:miter;stroke:rgb(0%,0%,0%);stroke-opacity:1;stroke-miterlimit:10;" d="M -5.456719 -0.00184375 L -2.72625 -4.7245 L 0.0003125 -3.150281 Z M -5.456719 -0.00184375 " transform="matrix(1,0,0,-1,73.945,85.338)"/>
<path style="fill-rule:nonzero;fill:rgb(60.392761%,7.450867%,7.450867%);fill-opacity:1;stroke-width:0.59776;stroke-linecap:butt;stroke-linejoin:miter;stroke:rgb(0%,0%,0%);stroke-opacity:1;stroke-miterlimit:10;" d="M -2.72625 -4.7245 L 2.726875 -4.7245 L 2.726875 -1.576063 Z M -2.72625 -4.7245 " transform="matrix(1,0,0,-1,73.945,85.338)"/>
<path style="fill-rule:nonzero;fill:rgb(100%,64.704895%,0%);fill-opacity:1;stroke-width:0.59776;stroke-linecap:butt;stroke-linejoin:miter;stroke:rgb(0%,0%,0%);stroke-opacity:1;stroke-miterlimit:10;" d="M 2.726875 -4.7245 L 5.453437 -0.00184375 L 2.726875 1.576281 Z M 2.726875 -4.7245 " transform="matrix(1,0,0,-1,73.945,85.338)"/>
<path style="fill-rule:nonzero;fill:rgb(35.68573%,92.156982%,63.920593%);fill-opacity:1;stroke-width:0.59776;stroke-linecap:butt;stroke-linejoin:miter;stroke:rgb(0%,0%,0%);stroke-opacity:1;stroke-miterlimit:10;" d="M 5.453437 -0.00184375 L 2.726875 4.724719 L 0.0003125 3.1505 Z M 5.453437 -0.00184375 " transform="matrix(1,0,0,-1,73.945,85.338)"/>
<path style="fill-rule:nonzero;fill:rgb(7.450867%,60.392761%,60.392761%);fill-opacity:1;stroke-width:0.59776;stroke-linecap:butt;stroke-linejoin:miter;stroke:rgb(0%,0%,0%);stroke-opacity:1;stroke-miterlimit:10;" d="M 2.726875 4.724719 L -2.72625 4.724719 L -2.72625 1.576281 Z M 2.726875 4.724719 " transform="matrix(1,0,0,-1,73.945,85.338)"/>
<path style="fill-rule:nonzero;fill:rgb(0%,35.293579%,100%);fill-opacity:1;stroke-width:0.59776;stroke-linecap:butt;stroke-linejoin:miter;stroke:rgb(0%,0%,0%);stroke-opacity:1;stroke-miterlimit:10;" d="M -2.72625 4.724719 L -5.456719 -0.00184375 L -2.72625 -1.576063 Z M -2.72625 4.724719 " transform="matrix(1,0,0,-1,73.945,85.338)"/>
<path style="fill:none;stroke-width:0.59776;stroke-linecap:butt;stroke-linejoin:miter;stroke:rgb(0%,0%,0%);stroke-opacity:1;stroke-miterlimit:10;" d="M -2.72625 -1.576063 L 0.0003125 -3.150281 L 2.726875 -1.576063 L 2.726875 1.576281 L 0.0003125 3.1505 L -2.72625 1.576281 Z M -2.72625 -1.576063 " transform="matrix(1,0,0,-1,73.945,85.338)"/>
<path style="fill:none;stroke-width:0.59776;stroke-linecap:butt;stroke-linejoin:miter;stroke:rgb(0%,0%,0%);stroke-opacity:1;stroke-miterlimit:10;" d="M 0.910469 -1.576063 L 1.816719 -0.00184375 L 0.910469 1.576281 L -0.909844 1.576281 L -1.82 -0.00184375 L -0.909844 -1.576063 Z M 0.910469 -1.576063 " transform="matrix(1,0,0,-1,73.945,85.338)"/>
<path style="fill-rule:nonzero;fill:rgb(92.156982%,35.68573%,63.920593%);fill-opacity:1;stroke-width:0.59776;stroke-linecap:butt;stroke-linejoin:miter;stroke:rgb(0%,0%,0%);stroke-opacity:1;stroke-miterlimit:10;" d="M -2.72625 -1.576063 L 0.0003125 -3.150281 L 0.910469 -1.576063 Z M -2.72625 -1.576063 " transform="matrix(1,0,0,-1,73.945,85.338)"/>
<path style="fill-rule:nonzero;fill:rgb(60.392761%,7.450867%,7.450867%);fill-opacity:1;stroke-width:0.59776;stroke-linecap:butt;stroke-linejoin:miter;stroke:rgb(0%,0%,0%);stroke-opacity:1;stroke-miterlimit:10;" d="M 0.0003125 -3.150281 L 2.726875 -1.576063 L 1.816719 -0.00184375 Z M 0.0003125 -3.150281 " transform="matrix(1,0,0,-1,73.945,85.338)"/>
<path style="fill-rule:nonzero;fill:rgb(100%,64.704895%,0%);fill-opacity:1;stroke-width:0.59776;stroke-linecap:butt;stroke-linejoin:miter;stroke:rgb(0%,0%,0%);stroke-opacity:1;stroke-miterlimit:10;" d="M 2.726875 -1.576063 L 2.726875 1.576281 L 0.910469 1.576281 Z M 2.726875 -1.576063 " transform="matrix(1,0,0,-1,73.945,85.338)"/>
<path style="fill-rule:nonzero;fill:rgb(35.68573%,92.156982%,63.920593%);fill-opacity:1;stroke-width:0.59776;stroke-linecap:butt;stroke-linejoin:miter;stroke:rgb(0%,0%,0%);stroke-opacity:1;stroke-miterlimit:10;" d="M 2.726875 1.576281 L 0.0003125 3.1505 L -0.909844 1.576281 Z M 2.726875 1.576281 " transform="matrix(1,0,0,-1,73.945,85.338)"/>
<path style="fill-rule:nonzero;fill:rgb(7.450867%,60.392761%,60.392761%);fill-opacity:1;stroke-width:0.59776;stroke-linecap:butt;stroke-linejoin:miter;stroke:rgb(0%,0%,0%);stroke-opacity:1;stroke-miterlimit:10;" d="M 0.0003125 3.1505 L -2.72625 1.576281 L -1.82 -0.00184375 Z M 0.0003125 3.1505 " transform="matrix(1,0,0,-1,73.945,85.338)"/>
<path style="fill-rule:nonzero;fill:rgb(0%,35.293579%,100%);fill-opacity:1;stroke-width:0.59776;stroke-linecap:butt;stroke-linejoin:miter;stroke:rgb(0%,0%,0%);stroke-opacity:1;stroke-miterlimit:10;" d="M -2.72625 1.576281 L -2.72625 -1.576063 L -0.909844 -1.576063 Z M -2.72625 1.576281 " transform="matrix(1,0,0,-1,73.945,85.338)"/>
<path style="fill:none;stroke-width:0.59776;stroke-linecap:butt;stroke-linejoin:miter;stroke:rgb(0%,0%,0%);stroke-opacity:1;stroke-miterlimit:10;" d="M -0.909844 -1.576063 L 0.910469 -1.576063 L 1.816719 -0.00184375 L 0.910469 1.576281 L -0.909844 1.576281 L -1.82 -0.00184375 Z M -0.909844 -1.576063 " transform="matrix(1,0,0,-1,73.945,85.338)"/>
<path style="fill:none;stroke-width:0.59776;stroke-linecap:butt;stroke-linejoin:miter;stroke:rgb(0%,0%,0%);stroke-opacity:1;stroke-miterlimit:10;" d="M 0.910469 -0.525281 L 0.910469 0.5255 L 0.0003125 1.048937 L -0.909844 0.5255 L -0.909844 -0.525281 L 0.0003125 -1.048719 Z M 0.910469 -0.525281 " transform="matrix(1,0,0,-1,73.945,85.338)"/>
<path style="fill-rule:nonzero;fill:rgb(92.156982%,35.68573%,63.920593%);fill-opacity:1;stroke-width:0.59776;stroke-linecap:butt;stroke-linejoin:miter;stroke:rgb(0%,0%,0%);stroke-opacity:1;stroke-miterlimit:10;" d="M -0.909844 -1.576063 L 0.910469 -1.576063 L 0.910469 -0.525281 Z M -0.909844 -1.576063 " transform="matrix(1,0,0,-1,73.945,85.338)"/>
<path style="fill-rule:nonzero;fill:rgb(60.392761%,7.450867%,7.450867%);fill-opacity:1;stroke-width:0.59776;stroke-linecap:butt;stroke-linejoin:miter;stroke:rgb(0%,0%,0%);stroke-opacity:1;stroke-miterlimit:10;" d="M 0.910469 -1.576063 L 1.816719 -0.00184375 L 0.910469 0.5255 Z M 0.910469 -1.576063 " transform="matrix(1,0,0,-1,73.945,85.338)"/>
<path style="fill-rule:nonzero;fill:rgb(100%,64.704895%,0%);fill-opacity:1;stroke-width:0.59776;stroke-linecap:butt;stroke-linejoin:miter;stroke:rgb(0%,0%,0%);stroke-opacity:1;stroke-miterlimit:10;" d="M 1.816719 -0.00184375 L 0.910469 1.576281 L 0.0003125 1.048937 Z M 1.816719 -0.00184375 " transform="matrix(1,0,0,-1,73.945,85.338)"/>
<path style="fill-rule:nonzero;fill:rgb(35.68573%,92.156982%,63.920593%);fill-opacity:1;stroke-width:0.59776;stroke-linecap:butt;stroke-linejoin:miter;stroke:rgb(0%,0%,0%);stroke-opacity:1;stroke-miterlimit:10;" d="M 0.910469 1.576281 L -0.909844 1.576281 L -0.909844 0.5255 Z M 0.910469 1.576281 " transform="matrix(1,0,0,-1,73.945,85.338)"/>
<path style="fill-rule:nonzero;fill:rgb(7.450867%,60.392761%,60.392761%);fill-opacity:1;stroke-width:0.59776;stroke-linecap:butt;stroke-linejoin:miter;stroke:rgb(0%,0%,0%);stroke-opacity:1;stroke-miterlimit:10;" d="M -0.909844 1.576281 L -1.82 -0.00184375 L -0.909844 -0.525281 Z M -0.909844 1.576281 " transform="matrix(1,0,0,-1,73.945,85.338)"/>
<path style="fill-rule:nonzero;fill:rgb(0%,35.293579%,100%);fill-opacity:1;stroke-width:0.59776;stroke-linecap:butt;stroke-linejoin:miter;stroke:rgb(0%,0%,0%);stroke-opacity:1;stroke-miterlimit:10;" d="M -1.82 -0.00184375 L -0.909844 -1.576063 L 0.0003125 -1.048719 Z M -1.82 -0.00184375 " transform="matrix(1,0,0,-1,73.945,85.338)"/>
<path style="fill:none;stroke-width:0.59776;stroke-linecap:butt;stroke-linejoin:miter;stroke:rgb(0%,0%,0%);stroke-opacity:1;stroke-miterlimit:10;" d="M 0.0003125 -1.048719 L 0.910469 -0.525281 L 0.910469 0.5255 L 0.0003125 1.048937 L -0.909844 0.5255 L -0.909844 -0.525281 Z M 0.0003125 -1.048719 " transform="matrix(1,0,0,-1,73.945,85.338)"/>
<path style="fill:none;stroke-width:0.59776;stroke-linecap:butt;stroke-linejoin:miter;stroke:rgb(0%,0%,0%);stroke-opacity:1;stroke-miterlimit:10;" d="M 0.605781 -0.00184375 L 0.301094 0.5255 L -0.304375 0.5255 L -0.605156 -0.00184375 L -0.304375 -0.525281 L 0.301094 -0.525281 Z M 0.605781 -0.00184375 " transform="matrix(1,0,0,-1,73.945,85.338)"/>
<path style="fill-rule:nonzero;fill:rgb(92.156982%,35.68573%,63.920593%);fill-opacity:1;stroke-width:0.59776;stroke-linecap:butt;stroke-linejoin:miter;stroke:rgb(0%,0%,0%);stroke-opacity:1;stroke-miterlimit:10;" d="M 0.0003125 -1.048719 L 0.910469 -0.525281 L 0.605781 -0.00184375 Z M 0.0003125 -1.048719 " transform="matrix(1,0,0,-1,73.945,85.338)"/>
<path style="fill-rule:nonzero;fill:rgb(60.392761%,7.450867%,7.450867%);fill-opacity:1;stroke-width:0.59776;stroke-linecap:butt;stroke-linejoin:miter;stroke:rgb(0%,0%,0%);stroke-opacity:1;stroke-miterlimit:10;" d="M 0.910469 -0.525281 L 0.910469 0.5255 L 0.301094 0.5255 Z M 0.910469 -0.525281 " transform="matrix(1,0,0,-1,73.945,85.338)"/>
<path style="fill-rule:nonzero;fill:rgb(100%,64.704895%,0%);fill-opacity:1;stroke-width:0.59776;stroke-linecap:butt;stroke-linejoin:miter;stroke:rgb(0%,0%,0%);stroke-opacity:1;stroke-miterlimit:10;" d="M 0.910469 0.5255 L 0.0003125 1.048937 L -0.304375 0.5255 Z M 0.910469 0.5255 " transform="matrix(1,0,0,-1,73.945,85.338)"/>
<path style="fill-rule:nonzero;fill:rgb(35.68573%,92.156982%,63.920593%);fill-opacity:1;stroke-width:0.59776;stroke-linecap:butt;stroke-linejoin:miter;stroke:rgb(0%,0%,0%);stroke-opacity:1;stroke-miterlimit:10;" d="M 0.0003125 1.048937 L -0.909844 0.5255 L -0.605156 -0.00184375 Z M 0.0003125 1.048937 " transform="matrix(1,0,0,-1,73.945,85.338)"/>
<path style="fill-rule:nonzero;fill:rgb(7.450867%,60.392761%,60.392761%);fill-opacity:1;stroke-width:0.59776;stroke-linecap:butt;stroke-linejoin:miter;stroke:rgb(0%,0%,0%);stroke-opacity:1;stroke-miterlimit:10;" d="M -0.909844 0.5255 L -0.909844 -0.525281 L -0.304375 -0.525281 Z M -0.909844 0.5255 " transform="matrix(1,0,0,-1,73.945,85.338)"/>
<path style="fill-rule:nonzero;fill:rgb(0%,35.293579%,100%);fill-opacity:1;stroke-width:0.59776;stroke-linecap:butt;stroke-linejoin:miter;stroke:rgb(0%,0%,0%);stroke-opacity:1;stroke-miterlimit:10;" d="M -0.909844 -0.525281 L 0.0003125 -1.048719 L 0.301094 -0.525281 Z M -0.909844 -0.525281 " transform="matrix(1,0,0,-1,73.945,85.338)"/>
<path style="fill:none;stroke-width:0.59776;stroke-linecap:butt;stroke-linejoin:miter;stroke:rgb(0%,0%,0%);stroke-opacity:1;stroke-miterlimit:10;" d="M 0.301094 -0.525281 L 0.605781 -0.00184375 L 0.301094 0.5255 L -0.304375 0.5255 L -0.605156 -0.00184375 L -0.304375 -0.525281 Z M 0.301094 -0.525281 " transform="matrix(1,0,0,-1,73.945,85.338)"/>
<path style="fill:none;stroke-width:0.59776;stroke-linecap:butt;stroke-linejoin:miter;stroke:rgb(0%,0%,0%);stroke-opacity:1;stroke-miterlimit:10;" d="M 0.301094 0.173937 L 0.0003125 0.349719 L -0.304375 0.173937 L -0.304375 -0.173719 L 0.0003125 -0.3495 L 0.305 -0.173719 Z M 0.301094 0.173937 " transform="matrix(1,0,0,-1,73.945,85.338)"/>
<path style="fill-rule:nonzero;fill:rgb(92.156982%,35.68573%,63.920593%);fill-opacity:1;stroke-width:0.59776;stroke-linecap:butt;stroke-linejoin:miter;stroke:rgb(0%,0%,0%);stroke-opacity:1;stroke-miterlimit:10;" d="M 0.301094 -0.525281 L 0.605781 -0.00184375 L 0.301094 0.173937 Z M 0.301094 -0.525281 " transform="matrix(1,0,0,-1,73.945,85.338)"/>
<path style="fill-rule:nonzero;fill:rgb(60.392761%,7.450867%,7.450867%);fill-opacity:1;stroke-width:0.59776;stroke-linecap:butt;stroke-linejoin:miter;stroke:rgb(0%,0%,0%);stroke-opacity:1;stroke-miterlimit:10;" d="M 0.605781 -0.00184375 L 0.301094 0.5255 L 0.0003125 0.349719 Z M 0.605781 -0.00184375 " transform="matrix(1,0,0,-1,73.945,85.338)"/>
<path style="fill-rule:nonzero;fill:rgb(100%,64.704895%,0%);fill-opacity:1;stroke-width:0.59776;stroke-linecap:butt;stroke-linejoin:miter;stroke:rgb(0%,0%,0%);stroke-opacity:1;stroke-miterlimit:10;" d="M 0.301094 0.5255 L -0.304375 0.5255 L -0.304375 0.173937 Z M 0.301094 0.5255 " transform="matrix(1,0,0,-1,73.945,85.338)"/>
<path style="fill-rule:nonzero;fill:rgb(35.68573%,92.156982%,63.920593%);fill-opacity:1;stroke-width:0.59776;stroke-linecap:butt;stroke-linejoin:miter;stroke:rgb(0%,0%,0%);stroke-opacity:1;stroke-miterlimit:10;" d="M -0.304375 0.5255 L -0.605156 -0.00184375 L -0.304375 -0.173719 Z M -0.304375 0.5255 " transform="matrix(1,0,0,-1,73.945,85.338)"/>
<path style="fill-rule:nonzero;fill:rgb(7.450867%,60.392761%,60.392761%);fill-opacity:1;stroke-width:0.59776;stroke-linecap:butt;stroke-linejoin:miter;stroke:rgb(0%,0%,0%);stroke-opacity:1;stroke-miterlimit:10;" d="M -0.605156 -0.00184375 L -0.304375 -0.525281 L 0.0003125 -0.3495 Z M -0.605156 -0.00184375 " transform="matrix(1,0,0,-1,73.945,85.338)"/>
<path style="fill-rule:nonzero;fill:rgb(0%,35.293579%,100%);fill-opacity:1;stroke-width:0.59776;stroke-linecap:butt;stroke-linejoin:miter;stroke:rgb(0%,0%,0%);stroke-opacity:1;stroke-miterlimit:10;" d="M -0.304375 -0.525281 L 0.301094 -0.525281 L 0.305 -0.173719 Z M -0.304375 -0.525281 " transform="matrix(1,0,0,-1,73.945,85.338)"/>
</g>
</svg>
